<svg width="150" height="117" viewBox="0 0 150 117" fill="none" xmlns="http://www.w3.org/2000/svg">
<g clip-path="url(#clip0_381_4457)">
<rect width="150" height="117" rx="22" fill="#2B6462"/>
<path d="M36.9257 33.804C37.1257 33.684 37.1977 33.724 37.1417 33.924L37.0217 34.308C36.9977 34.412 36.9097 34.508 36.7577 34.596L34.4297 35.94C34.3577 35.98 34.3017 35.992 34.2617 35.976C34.2297 35.952 34.2137 35.904 34.2137 35.832V35.628C34.2137 35.564 34.2857 35.472 34.4297 35.352L36.9257 33.804ZM38.135 27.408C38.639 27.464 38.975 27.968 39.143 28.92H39.587C39.707 28.92 39.783 29.008 39.815 29.184C39.831 29.272 39.839 29.364 39.839 29.46C39.847 29.556 39.839 29.648 39.815 29.736C39.767 29.912 39.691 30 39.587 30H39.119C39.111 30.032 39.095 30.1 39.071 30.204C39.047 30.316 39.007 30.468 38.951 30.66C38.839 31.052 38.703 31.352 38.543 31.56C37.911 32.408 36.979 32.908 35.747 33.06C35.059 33.14 34.463 33.04 33.959 32.76C33.551 32.52 33.283 32.184 33.155 31.752C32.931 30.984 33.087 30.132 33.623 29.196L33.971 28.608C34.003 28.552 34.043 28.524 34.091 28.524C34.139 28.524 34.171 28.552 34.187 28.608C34.203 28.656 34.199 28.7 34.175 28.74C34.023 28.988 33.927 29.144 33.887 29.208C33.423 30.008 33.395 30.7 33.803 31.284C34.067 31.668 34.539 31.9 35.219 31.98C35.899 32.06 36.583 31.968 37.271 31.704C37.959 31.44 38.435 31.04 38.699 30.504C38.739 30.392 38.723 30.224 38.651 30C37.987 30 37.515 29.88 37.235 29.64C36.963 29.4 37.035 28.928 37.451 28.224C37.787 27.672 38.015 27.4 38.135 27.408ZM38.267 28.764C38.179 28.564 38.051 28.464 37.883 28.464C37.715 28.464 37.655 28.516 37.703 28.62C37.791 28.804 37.963 28.884 38.219 28.86C38.275 28.852 38.291 28.82 38.267 28.764ZM38.327 24.696C38.343 24.672 38.375 24.664 38.423 24.672C38.583 24.728 38.731 24.796 38.867 24.876C39.011 24.956 39.147 25.052 39.275 25.164C39.307 25.196 39.311 25.232 39.287 25.272L38.711 26.184C38.695 26.208 38.659 26.2 38.603 26.16C38.579 26.136 38.511 26.092 38.399 26.028C38.287 25.956 38.127 25.86 37.919 25.74L37.463 26.448C37.439 26.488 37.399 26.484 37.343 26.436C37.311 26.412 37.227 26.356 37.091 26.268C36.955 26.18 36.759 26.06 36.503 25.908C36.471 25.884 36.467 25.86 36.491 25.836L37.079 24.96C37.095 24.936 37.127 24.928 37.175 24.936C37.311 24.976 37.439 25.032 37.559 25.104C37.679 25.168 37.791 25.244 37.895 25.332L38.327 24.696ZM42.5081 28.92C42.6521 28.96 42.7281 29.004 42.7361 29.052C42.7521 29.116 42.7521 29.212 42.7361 29.34C42.6801 29.78 42.6041 30 42.5081 30C42.0761 30 41.6441 29.756 41.2121 29.268C40.8441 29.708 40.3001 29.952 39.5801 30C39.5001 30 39.4481 29.94 39.4241 29.82L39.3281 29.316C39.3041 29.244 39.3201 29.16 39.3761 29.064C39.4241 28.984 39.4921 28.936 39.5801 28.92C40.4601 28.848 41.0521 28.584 41.3561 28.128C41.3961 28.064 41.4521 28.032 41.5241 28.032C41.5961 28.032 41.6321 28.068 41.6321 28.14C41.6321 28.204 41.6401 28.252 41.6561 28.284C41.9201 28.644 42.2041 28.856 42.5081 28.92ZM41.5961 30.768C41.6121 30.744 41.6441 30.736 41.6921 30.744C41.8521 30.8 42.0001 30.868 42.1361 30.948C42.2801 31.028 42.4161 31.124 42.5441 31.236C42.5761 31.268 42.5801 31.304 42.5561 31.344L41.9801 32.256C41.9641 32.28 41.9281 32.272 41.8721 32.232C41.8481 32.208 41.7801 32.16 41.6681 32.088C41.5561 32.024 41.3961 31.932 41.1881 31.812L40.7321 32.52C40.7081 32.56 40.6681 32.556 40.6121 32.508C40.5801 32.484 40.4961 32.428 40.3601 32.34C40.2241 32.252 40.0281 32.132 39.7721 31.98C39.7401 31.956 39.7361 31.932 39.7601 31.908L40.3481 31.032C40.3641 31.008 40.3961 31 40.4441 31.008C40.5801 31.048 40.7081 31.1 40.8281 31.164C40.9481 31.236 41.0601 31.316 41.1641 31.404L41.5961 30.768ZM45.0351 33.804C45.2351 33.684 45.3071 33.724 45.2511 33.924L45.1311 34.308C45.1071 34.412 45.0191 34.508 44.8671 34.596L42.5391 35.94C42.4671 35.98 42.4111 35.992 42.3711 35.976C42.3391 35.952 42.3231 35.904 42.3231 35.832V35.628C42.3231 35.564 42.3951 35.472 42.5391 35.352L45.0351 33.804ZM45.4378 28.92C45.5818 28.96 45.6578 29.004 45.6658 29.052C45.6818 29.116 45.6818 29.212 45.6658 29.34C45.6098 29.78 45.5338 30 45.4378 30C45.0058 30 44.5738 29.756 44.1418 29.268C43.7738 29.708 43.2298 29.952 42.5098 30C42.4298 30 42.3778 29.94 42.3538 29.82L42.2578 29.316C42.2338 29.244 42.2498 29.16 42.3058 29.064C42.3538 28.984 42.4218 28.936 42.5098 28.92C43.3898 28.848 43.9818 28.584 44.2858 28.128C44.3258 28.064 44.3818 28.032 44.4538 28.032C44.5258 28.032 44.5618 28.068 44.5618 28.14C44.5618 28.204 44.5698 28.252 44.5858 28.284C44.8498 28.644 45.1338 28.856 45.4378 28.92ZM44.2738 24.696C44.2898 24.672 44.3218 24.664 44.3698 24.672C44.5298 24.728 44.6778 24.796 44.8138 24.876C44.9578 24.956 45.0938 25.052 45.2218 25.164C45.2538 25.196 45.2578 25.232 45.2338 25.272L44.6578 26.184C44.6418 26.208 44.6058 26.2 44.5498 26.16C44.5258 26.136 44.4578 26.092 44.3458 26.028C44.2338 25.956 44.0738 25.86 43.8658 25.74L43.4098 26.448C43.3858 26.488 43.3458 26.484 43.2898 26.436C43.2578 26.412 43.1738 26.356 43.0378 26.268C42.9018 26.18 42.7058 26.06 42.4498 25.908C42.4178 25.884 42.4138 25.86 42.4378 25.836L43.0258 24.96C43.0418 24.936 43.0738 24.928 43.1218 24.936C43.2578 24.976 43.3858 25.032 43.5058 25.104C43.6258 25.168 43.7378 25.244 43.8418 25.332L44.2738 24.696ZM48.4921 17.748C48.6921 17.628 48.7641 17.668 48.7081 17.868L48.5881 18.252C48.5641 18.356 48.4761 18.452 48.3241 18.54L45.9961 19.884C45.9241 19.924 45.8681 19.936 45.8281 19.92C45.7961 19.896 45.7801 19.848 45.7801 19.776V19.572C45.7801 19.508 45.8521 19.416 45.9961 19.296L48.4921 17.748ZM49.8315 28.92C50.1035 28.92 50.2235 29.06 50.1915 29.34C50.1275 29.772 50.0075 29.992 49.8315 30C49.0955 30.048 48.3555 29.636 47.6115 28.764C46.6035 29.596 45.8795 30.008 45.4395 30C45.2555 30 45.1315 29.848 45.0675 29.544C44.9955 29.144 45.1195 28.936 45.4395 28.92C45.6875 28.904 45.9275 28.856 46.1595 28.776C46.3995 28.696 46.6315 28.58 46.8555 28.428C46.6075 28.18 46.2435 28.02 45.7635 27.948C45.7155 27.94 45.6955 27.896 45.7035 27.816C45.7355 27.584 45.9435 27.3 46.3275 26.964C47.0155 26.404 47.7875 26.384 48.6435 26.904C49.0515 27.152 49.2435 27.392 49.2195 27.624C49.1955 27.864 48.9155 28.152 48.3795 28.488C48.6675 28.776 49.1515 28.92 49.8315 28.92ZM49.527 18.192C49.847 17.608 50.259 17.508 50.763 17.892C51.091 18.148 51.267 18.448 51.291 18.792C51.315 19.224 51.183 19.544 50.895 19.752C50.679 19.896 50.419 19.956 50.115 19.932C49.475 19.884 49.215 19.484 49.335 18.732C49.351 18.628 49.375 18.532 49.407 18.444C49.447 18.356 49.487 18.272 49.527 18.192ZM50.799 19.092C51.031 19.028 51.027 18.876 50.787 18.636C50.611 18.46 50.399 18.372 50.151 18.372C49.855 18.364 49.699 18.492 49.683 18.756C49.683 18.932 49.747 19.044 49.875 19.092C50.155 19.188 50.463 19.188 50.799 19.092ZM50.026 22.08C50.146 21.792 50.218 21.612 50.242 21.54C50.266 21.468 50.306 21.432 50.362 21.432C50.426 21.432 50.47 21.472 50.494 21.552C50.614 21.912 50.786 22.204 51.01 22.428C51.09 22.5 51.086 22.592 50.998 22.704L50.734 23.076C50.758 23.3 50.782 23.516 50.806 23.724C50.83 23.932 50.854 24.132 50.878 24.324C51.142 26.316 51.234 27.524 51.154 27.948C50.898 29.22 50.458 29.904 49.834 30C49.818 30 49.802 30 49.786 30C49.674 29.968 49.63 29.704 49.654 29.208C49.654 29.024 49.714 28.928 49.834 28.92C50.274 28.872 50.578 28.692 50.746 28.38C50.738 28.068 50.706 27.664 50.65 27.168C50.602 26.672 50.534 26.092 50.446 25.428C50.366 24.764 50.298 24.228 50.242 23.82C50.186 23.412 50.15 23.132 50.134 22.98L50.014 22.296C50.006 22.2 50.01 22.128 50.026 22.08ZM52.9996 21.96C53.1676 21.568 53.2756 21.56 53.3236 21.936L53.5996 24.876C53.9036 27.524 53.8676 29.204 53.4916 29.916C53.4356 30.012 53.3916 30.036 53.3596 29.988C53.3276 29.948 53.3116 29.88 53.3116 29.784C53.3276 29.112 53.2796 28.356 53.1676 27.516C53.1676 27.484 53.0836 26.724 52.9156 25.236L52.6516 23.064C52.6356 22.904 52.6516 22.768 52.6996 22.656L52.9996 21.96ZM52.8076 19.5C52.9436 19.3 53.0636 19.132 53.1676 18.996C53.2796 18.86 53.3756 18.756 53.4556 18.684C53.6796 18.484 53.8956 18.384 54.1036 18.384C54.4156 18.384 54.5996 18.516 54.6556 18.78C54.7036 19.012 54.6436 19.26 54.4756 19.524C54.0196 20.14 53.4996 20.428 52.9156 20.388C52.7876 20.372 52.6556 20.344 52.5196 20.304C52.3916 20.256 52.2636 20.192 52.1356 20.112C52.0396 20.056 51.9516 20.068 51.8716 20.148L51.7636 20.232C51.6916 20.288 51.6436 20.312 51.6196 20.304C51.5716 20.264 51.5636 20.208 51.5956 20.136C51.9316 19.488 52.2356 19.236 52.5076 19.38C52.5476 19.404 52.5916 19.428 52.6396 19.452C52.6956 19.468 52.7516 19.484 52.8076 19.5ZM53.2636 19.26C53.1836 19.356 53.1116 19.452 53.0476 19.548C53.3916 19.604 53.7436 19.544 54.1036 19.368C54.1356 19.208 54.1196 19.092 54.0556 19.02C54.0156 18.972 53.9476 18.944 53.8516 18.936C53.6676 18.936 53.4716 19.044 53.2636 19.26ZM65.25 33.804C65.45 33.684 65.522 33.724 65.466 33.924L65.346 34.308C65.322 34.412 65.234 34.508 65.082 34.596L62.754 35.94C62.682 35.98 62.626 35.992 62.586 35.976C62.554 35.952 62.538 35.904 62.538 35.832V35.628C62.538 35.564 62.61 35.472 62.754 35.352L65.25 33.804ZM59.4771 26.952C59.5331 26.872 59.5931 26.864 59.6571 26.928C59.7211 26.984 59.7211 27.056 59.6571 27.144C59.3691 27.536 59.2571 27.872 59.3211 28.152C59.5851 29.264 60.7971 29.792 62.9571 29.736C64.4131 29.688 65.7531 29.412 66.9771 28.908C67.2171 28.812 67.3811 28.576 67.4691 28.2C67.4931 28.088 67.5651 28.036 67.6851 28.044C67.7731 28.06 67.8171 28.144 67.8171 28.296C67.8251 28.672 68.1011 28.88 68.6451 28.92C68.8451 28.928 68.9331 29.056 68.9091 29.304C68.8611 29.768 68.7731 30 68.6451 30C68.2851 30 67.9611 29.816 67.6731 29.448C67.6571 29.424 67.6051 29.444 67.5171 29.508C66.0931 30.468 64.3971 30.948 62.4291 30.948C60.4771 30.948 59.3091 30.468 58.9251 29.508C58.7491 29.044 58.7491 28.56 58.9251 28.056C59.1011 27.56 59.2851 27.192 59.4771 26.952ZM63.9771 23.94C63.9931 23.916 64.0251 23.908 64.0731 23.916C64.2331 23.972 64.3811 24.04 64.5171 24.12C64.6611 24.2 64.7971 24.296 64.9251 24.408C64.9571 24.44 64.9611 24.476 64.9371 24.516L64.3611 25.428C64.3451 25.452 64.3091 25.444 64.2531 25.404C64.2291 25.38 64.1611 25.336 64.0491 25.272C63.9371 25.2 63.7771 25.104 63.5691 24.984L63.1131 25.692C63.0891 25.732 63.0491 25.728 62.9931 25.68C62.9611 25.656 62.8771 25.6 62.7411 25.512C62.6051 25.424 62.4091 25.304 62.1531 25.152C62.1211 25.128 62.1171 25.104 62.1411 25.08L62.7291 24.204C62.7451 24.18 62.7771 24.172 62.8251 24.18C62.9611 24.22 63.0891 24.276 63.2091 24.348C63.3291 24.412 63.4411 24.488 63.5451 24.576L63.9771 23.94ZM68.9919 18.192C69.3119 17.608 69.7239 17.508 70.2279 17.892C70.5559 18.148 70.7319 18.448 70.7559 18.792C70.7799 19.224 70.6479 19.544 70.3599 19.752C70.1439 19.896 69.8839 19.956 69.5799 19.932C68.9399 19.884 68.6799 19.484 68.7999 18.732C68.8159 18.628 68.8399 18.532 68.8719 18.444C68.9119 18.356 68.9519 18.272 68.9919 18.192ZM70.2639 19.092C70.4959 19.028 70.4919 18.876 70.2519 18.636C70.0759 18.46 69.8639 18.372 69.6159 18.372C69.3199 18.364 69.1639 18.492 69.1479 18.756C69.1479 18.932 69.2119 19.044 69.3399 19.092C69.6199 19.188 69.9279 19.188 70.2639 19.092ZM69.6869 26.304C69.6789 26.248 69.7189 26.132 69.8069 25.956C69.8949 25.788 69.9549 25.68 69.9869 25.632C70.0669 25.552 70.1229 25.592 70.1549 25.752C70.1709 25.832 70.1949 25.948 70.2269 26.1C70.2669 26.244 70.3069 26.42 70.3469 26.628C70.5469 27.548 70.7029 28.132 70.8149 28.38C70.9749 28.708 71.2229 28.888 71.5589 28.92C71.6549 28.928 71.7269 28.976 71.7749 29.064C71.8309 29.16 71.8389 29.28 71.7989 29.424C71.7269 29.808 71.6469 30 71.5589 30C70.8709 29.984 70.3949 29.476 70.1309 28.476C70.1149 28.436 70.1029 28.432 70.0949 28.464C69.7429 29.424 69.2549 29.936 68.6309 30C68.5589 30.008 68.5069 29.96 68.4749 29.856C68.4429 29.744 68.4069 29.564 68.3669 29.316C68.3269 29.06 68.4149 28.928 68.6309 28.92C69.2949 28.896 69.7629 28.652 70.0349 28.188C70.0509 28.164 70.0269 28.028 69.9629 27.78C69.9309 27.66 69.8909 27.476 69.8429 27.228C69.8029 26.98 69.7509 26.672 69.6869 26.304ZM70.6829 31.068C70.6989 31.044 70.7309 31.036 70.7789 31.044C70.9389 31.1 71.0869 31.168 71.2229 31.248C71.3669 31.328 71.5029 31.424 71.6309 31.536C71.6629 31.568 71.6669 31.604 71.6429 31.644L71.0669 32.556C71.0509 32.58 71.0149 32.572 70.9589 32.532C70.9349 32.508 70.8669 32.46 70.7549 32.388C70.6429 32.324 70.4829 32.232 70.2749 32.112L69.8189 32.82C69.7949 32.86 69.7549 32.856 69.6989 32.808C69.6669 32.784 69.5829 32.728 69.4469 32.64C69.3109 32.552 69.1149 32.432 68.8589 32.28C68.8269 32.256 68.8229 32.232 68.8469 32.208L69.4349 31.332C69.4509 31.308 69.4829 31.3 69.5309 31.308C69.6669 31.348 69.7949 31.4 69.9149 31.464C70.0349 31.536 70.1469 31.616 70.2509 31.704L70.6829 31.068ZM73.5468 17.748C73.7468 17.628 73.8188 17.668 73.7628 17.868L73.6428 18.252C73.6188 18.356 73.5308 18.452 73.3788 18.54L71.0508 19.884C70.9788 19.924 70.9228 19.936 70.8828 19.92C70.8508 19.896 70.8348 19.848 70.8348 19.776V19.572C70.8348 19.508 70.9068 19.416 71.0508 19.296L73.5468 17.748ZM74.4885 28.92C74.6325 28.96 74.7085 29.004 74.7165 29.052C74.7325 29.116 74.7325 29.212 74.7165 29.34C74.6605 29.78 74.5845 30 74.4885 30C74.0565 30 73.6245 29.756 73.1925 29.268C72.8245 29.708 72.2805 29.952 71.5605 30C71.4805 30 71.4285 29.94 71.4045 29.82L71.3085 29.316C71.2845 29.244 71.3005 29.16 71.3565 29.064C71.4045 28.984 71.4725 28.936 71.5605 28.92C72.4405 28.848 73.0325 28.584 73.3365 28.128C73.3765 28.064 73.4325 28.032 73.5045 28.032C73.5765 28.032 73.6125 28.068 73.6125 28.14C73.6125 28.204 73.6205 28.252 73.6365 28.284C73.9005 28.644 74.1845 28.856 74.4885 28.92ZM72.8925 31.344C72.9085 31.32 72.9405 31.312 72.9885 31.32C73.3085 31.432 73.5925 31.6 73.8405 31.824C73.8725 31.856 73.8765 31.888 73.8525 31.92L73.2885 32.832C73.2645 32.872 73.2245 32.868 73.1685 32.82C73.1365 32.796 73.0525 32.74 72.9165 32.652C72.7805 32.564 72.5845 32.444 72.3285 32.292C72.2885 32.268 72.2805 32.244 72.3045 32.22L72.8925 31.344ZM74.1833 18.192C74.5033 17.608 74.9153 17.508 75.4193 17.892C75.7473 18.148 75.9233 18.448 75.9473 18.792C75.9713 19.224 75.8393 19.544 75.5513 19.752C75.3353 19.896 75.0753 19.956 74.7713 19.932C74.1313 19.884 73.8713 19.484 73.9913 18.732C74.0073 18.628 74.0313 18.532 74.0633 18.444C74.1033 18.356 74.1433 18.272 74.1833 18.192ZM75.4553 19.092C75.6873 19.028 75.6833 18.876 75.4433 18.636C75.2673 18.46 75.0553 18.372 74.8073 18.372C74.5113 18.364 74.3553 18.492 74.3393 18.756C74.3393 18.932 74.4033 19.044 74.5313 19.092C74.8113 19.188 75.1193 19.188 75.4553 19.092ZM74.6822 22.08C74.8022 21.792 74.8742 21.612 74.8982 21.54C74.9222 21.468 74.9622 21.432 75.0182 21.432C75.0822 21.432 75.1262 21.472 75.1502 21.552C75.2702 21.912 75.4422 22.204 75.6662 22.428C75.7462 22.5 75.7422 22.592 75.6542 22.704L75.3902 23.076C75.4142 23.3 75.4382 23.516 75.4622 23.724C75.4862 23.932 75.5102 24.132 75.5342 24.324C75.7982 26.316 75.8902 27.524 75.8102 27.948C75.5542 29.22 75.1142 29.904 74.4902 30C74.4742 30 74.4582 30 74.4422 30C74.3302 29.968 74.2862 29.704 74.3102 29.208C74.3102 29.024 74.3702 28.928 74.4902 28.92C74.9302 28.872 75.2342 28.692 75.4022 28.38C75.3942 28.068 75.3622 27.664 75.3062 27.168C75.2582 26.672 75.1902 26.092 75.1022 25.428C75.0222 24.764 74.9542 24.228 74.8982 23.82C74.8422 23.412 74.8062 23.132 74.7902 22.98L74.6702 22.296C74.6622 22.2 74.6662 22.128 74.6822 22.08ZM78.0999 21.36C78.1319 21.304 78.1599 21.28 78.1839 21.288C78.2239 21.288 78.2559 21.372 78.2799 21.54C78.4239 22.78 78.5199 23.84 78.5679 24.72C78.6079 25.552 78.6399 26.22 78.6639 26.724C78.6959 27.228 78.7159 27.568 78.7239 27.744C78.7799 28.48 79.1799 28.872 79.9239 28.92C80.1399 28.936 80.2239 29.08 80.1759 29.352C80.1039 29.784 80.0199 30 79.9239 30C78.8759 30 78.3159 29.512 78.2439 28.536C78.2119 28.128 78.1839 27.72 78.1599 27.312C78.1439 26.896 78.1279 26.48 78.1119 26.064C78.0879 25.232 78.0399 24.56 77.9679 24.048C77.8959 23.528 77.7999 22.94 77.6799 22.284C77.6559 22.164 77.6679 22.064 77.7159 21.984L78.0999 21.36ZM77.8119 19.5C77.9479 19.3 78.0679 19.132 78.1719 18.996C78.2839 18.86 78.3799 18.756 78.4599 18.684C78.6839 18.484 78.8999 18.384 79.1079 18.384C79.4199 18.384 79.6039 18.516 79.6599 18.78C79.7079 19.012 79.6479 19.26 79.4799 19.524C79.0239 20.14 78.5039 20.428 77.9199 20.388C77.7919 20.372 77.6599 20.344 77.5239 20.304C77.3959 20.256 77.2679 20.192 77.1399 20.112C77.0439 20.056 76.9559 20.068 76.8759 20.148L76.7679 20.232C76.6959 20.288 76.6479 20.312 76.6239 20.304C76.5759 20.264 76.5679 20.208 76.5999 20.136C76.9359 19.488 77.2399 19.236 77.5119 19.38C77.5519 19.404 77.5959 19.428 77.6439 19.452C77.6999 19.468 77.7559 19.484 77.8119 19.5ZM78.2679 19.26C78.1879 19.356 78.1159 19.452 78.0519 19.548C78.3959 19.604 78.7479 19.544 79.1079 19.368C79.1399 19.208 79.1239 19.092 79.0599 19.02C79.0199 18.972 78.9519 18.944 78.8559 18.936C78.6719 18.936 78.4759 19.044 78.2679 19.26ZM82.8281 33.804C83.0281 33.684 83.1001 33.724 83.0441 33.924L82.9241 34.308C82.9001 34.412 82.8121 34.508 82.6601 34.596L80.3321 35.94C80.2601 35.98 80.2041 35.992 80.1641 35.976C80.1321 35.952 80.1161 35.904 80.1161 35.832V35.628C80.1161 35.564 80.1881 35.472 80.3321 35.352L82.8281 33.804ZM81.7877 27.624L82.1237 26.88C82.1957 26.736 82.2717 26.736 82.3517 26.88C82.5437 27.208 82.6277 27.72 82.6037 28.416C82.5877 28.76 82.4877 29.056 82.3037 29.304C81.9037 29.84 81.1117 30.072 79.9277 30C79.7837 29.984 79.6757 29.716 79.6037 29.196C79.5637 28.964 79.6717 28.872 79.9277 28.92C80.1917 28.968 80.4877 28.976 80.8157 28.944C80.9837 28.928 81.1757 28.892 81.3917 28.836C81.6157 28.78 81.8637 28.7 82.1357 28.596C82.0957 28.46 82.0477 28.336 81.9917 28.224C81.9437 28.104 81.8877 28.004 81.8237 27.924C81.7517 27.836 81.7397 27.736 81.7877 27.624ZM81.2837 31.344C81.2997 31.32 81.3317 31.312 81.3797 31.32C81.6997 31.432 81.9837 31.6 82.2317 31.824C82.2637 31.856 82.2677 31.888 82.2437 31.92L81.6797 32.832C81.6557 32.872 81.6157 32.868 81.5597 32.82C81.5277 32.796 81.4437 32.74 81.3077 32.652C81.1717 32.564 80.9757 32.444 80.7197 32.292C80.6797 32.268 80.6717 32.244 80.6957 32.22L81.2837 31.344ZM87.2857 19.42C87.5897 18.884 87.9817 18.788 88.4617 19.132C88.8137 19.388 88.9777 19.676 88.9537 19.996C88.9137 20.396 88.7897 20.696 88.5817 20.896C88.4457 21.032 88.2017 21.088 87.8497 21.064C87.2337 21.04 86.9857 20.664 87.1057 19.936C87.1377 19.752 87.1977 19.58 87.2857 19.42ZM88.5457 20.236C88.6817 20.204 88.6617 20.092 88.4857 19.9C88.3017 19.716 88.1017 19.616 87.8857 19.6C87.5737 19.6 87.4057 19.72 87.3817 19.96C87.3657 20.08 87.4057 20.156 87.5017 20.188C87.7897 20.308 88.1377 20.324 88.5457 20.236ZM87.9215 21.96C88.0895 21.568 88.1975 21.56 88.2455 21.936L88.5215 24.876C88.8255 27.524 88.7895 29.204 88.4135 29.916C88.3575 30.012 88.3135 30.036 88.2815 29.988C88.2495 29.948 88.2335 29.88 88.2335 29.784C88.2495 29.112 88.2015 28.356 88.0895 27.516C88.0895 27.484 88.0055 26.724 87.8375 25.236L87.5735 23.064C87.5575 22.904 87.5735 22.768 87.6215 22.656L87.9215 21.96ZM93.3551 30.132C93.1071 31.556 92.3511 32.552 91.0871 33.12C90.9271 33.192 90.7711 33.248 90.6191 33.288C90.4671 33.336 90.3231 33.364 90.1871 33.372C89.8991 33.388 89.3871 33.144 88.6511 32.64C88.5631 32.576 88.5351 32.516 88.5671 32.46C88.5991 32.404 88.6551 32.396 88.7351 32.436C89.3991 32.78 90.2351 32.664 91.2431 32.088C92.0991 31.6 92.6831 30.924 92.9951 30.06C92.9951 30.028 92.9831 30.008 92.9591 30C92.3671 29.984 91.9391 29.904 91.6751 29.76C91.3951 29.6 91.2911 29.288 91.3631 28.824C91.3711 28.768 91.3831 28.712 91.3991 28.656C91.4151 28.592 91.4351 28.524 91.4591 28.452C91.6271 27.956 91.8751 27.616 92.2031 27.432C92.5311 27.248 92.8071 27.312 93.0311 27.624C93.2631 27.944 93.3951 28.376 93.4271 28.92C93.4591 28.92 93.4871 28.92 93.5111 28.92C93.5431 28.912 93.5751 28.908 93.6071 28.908C93.7271 28.908 93.7991 29 93.8231 29.184C93.8471 29.36 93.8351 29.54 93.7871 29.724C93.7391 29.908 93.6791 30 93.6071 30H93.3791C93.3791 30.024 93.3711 30.068 93.3551 30.132ZM92.7791 28.788C92.6191 28.452 92.4271 28.288 92.2031 28.296C92.0671 28.32 91.9591 28.384 91.8791 28.488C91.8391 28.536 91.8471 28.592 91.9031 28.656C92.0311 28.824 92.3071 28.9 92.7311 28.884C92.7791 28.884 92.7951 28.852 92.7791 28.788ZM94.9215 16.248C95.0415 16.224 95.1535 16.288 95.2575 16.44C95.4575 16.752 95.4575 17.168 95.2575 17.688C95.3215 17.72 95.3735 17.752 95.4135 17.784C95.4615 17.808 95.5015 17.828 95.5335 17.844C95.6375 17.892 95.6615 17.972 95.6055 18.084L95.4735 18.336C95.4255 18.416 95.3655 18.444 95.2935 18.42C95.2615 18.404 95.2175 18.384 95.1615 18.36C95.1055 18.336 95.0415 18.304 94.9695 18.264C94.4175 19 93.7895 19.54 93.0855 19.884C92.9335 19.964 92.8295 19.956 92.7735 19.86C92.7095 19.74 92.7655 19.632 92.9415 19.536C93.6535 19.12 94.2255 18.636 94.6575 18.084C94.4175 17.956 94.2495 17.844 94.1535 17.748C93.9615 17.572 93.9095 17.376 93.9975 17.16C94.2215 16.616 94.5295 16.312 94.9215 16.248ZM94.7895 17.016C94.6135 16.856 94.4695 16.868 94.3575 17.052C94.3255 17.1 94.3455 17.16 94.4175 17.232C94.4975 17.312 94.6655 17.412 94.9215 17.532C94.9615 17.284 94.9175 17.112 94.7895 17.016ZM94.9718 25.092C95.0758 25.092 95.2038 25.156 95.3558 25.284C96.0758 25.908 96.4158 26.7 96.3758 27.66C96.3518 28.164 96.2278 28.564 96.0038 28.86C95.4118 29.62 94.6078 30 93.5918 30C93.4878 30 93.4118 29.908 93.3638 29.724C93.3398 29.636 93.3318 29.544 93.3398 29.448C93.3398 29.352 93.3478 29.264 93.3638 29.184C93.3958 29.024 93.4718 28.936 93.5918 28.92C94.5918 28.848 95.3438 28.56 95.8478 28.056C95.8238 27.808 95.7878 27.652 95.7398 27.588C95.6838 27.5 95.6358 27.464 95.5958 27.48C95.5638 27.488 95.5438 27.504 95.5358 27.528C95.3998 27.88 95.1918 28.088 94.9118 28.152C94.0318 28.344 93.6278 28.004 93.6998 27.132C93.7318 26.716 93.8918 26.268 94.1798 25.788C94.4518 25.324 94.7158 25.092 94.9718 25.092ZM94.5758 26.388C94.3998 26.396 94.2918 26.552 94.2518 26.856C94.2518 26.904 94.2558 26.928 94.2638 26.928C94.4238 26.976 94.5878 26.988 94.7558 26.964C94.9158 26.94 95.0238 26.888 95.0798 26.808C94.8958 26.512 94.7278 26.372 94.5758 26.388ZM94.3358 22.56C94.3518 22.536 94.3838 22.528 94.4318 22.536C94.7518 22.648 95.0358 22.816 95.2838 23.04C95.3158 23.072 95.3198 23.104 95.2958 23.136L94.7318 24.048C94.7078 24.088 94.6678 24.084 94.6118 24.036C94.5798 24.012 94.4958 23.956 94.3598 23.868C94.2238 23.78 94.0278 23.66 93.7718 23.508C93.7318 23.484 93.7238 23.46 93.7478 23.436L94.3358 22.56ZM97.8949 17.724L100.055 16.764C100.199 16.708 100.263 16.74 100.247 16.86L100.199 17.268C100.183 17.356 100.147 17.412 100.091 17.436L97.9789 18.168C97.8029 18.224 97.7269 18.18 97.7509 18.036L97.7749 17.868C97.7829 17.804 97.8229 17.756 97.8949 17.724ZM99.9806 18.204C100.005 18.02 100.065 17.936 100.161 17.952C100.281 17.968 100.337 18.052 100.329 18.204C100.305 18.62 100.225 18.976 100.089 19.272C99.9286 19.616 99.7046 19.8 99.4166 19.824C99.2326 19.832 99.0566 19.736 98.8886 19.536C98.8326 19.64 98.7646 19.728 98.6846 19.8C98.6046 19.872 98.5206 19.932 98.4326 19.98C98.2326 20.084 98.0366 20.096 97.8446 20.016C97.3806 19.824 97.3286 19.264 97.6886 18.336C97.7286 18.248 97.7766 18.196 97.8326 18.18C97.8646 18.172 97.9006 18.176 97.9406 18.192C98.0286 18.232 98.0566 18.32 98.0246 18.456C97.8886 18.928 97.9446 19.18 98.1926 19.212C98.4966 19.244 98.7366 18.92 98.9126 18.24C98.9526 18.104 99.0166 18.048 99.1046 18.072C99.2086 18.096 99.2486 18.156 99.2246 18.252C99.1766 18.532 99.2046 18.716 99.3086 18.804C99.3646 18.844 99.4326 18.864 99.5126 18.864C99.7766 18.864 99.9326 18.644 99.9806 18.204ZM101.031 30.132C100.783 31.556 100.027 32.552 98.7629 33.12C98.6029 33.192 98.4469 33.248 98.2949 33.288C98.1429 33.336 97.9989 33.364 97.8629 33.372C97.5749 33.388 97.0629 33.144 96.3269 32.64C96.2389 32.576 96.2109 32.516 96.2429 32.46C96.2749 32.404 96.3309 32.396 96.4109 32.436C97.0749 32.78 97.9109 32.664 98.9189 32.088C99.7749 31.6 100.359 30.924 100.671 30.06C100.671 30.028 100.659 30.008 100.635 30C100.043 29.984 99.6149 29.904 99.3509 29.76C99.0709 29.6 98.9669 29.288 99.0389 28.824C99.0469 28.768 99.0589 28.712 99.0749 28.656C99.0909 28.592 99.1109 28.524 99.1349 28.452C99.3029 27.956 99.5509 27.616 99.8789 27.432C100.207 27.248 100.483 27.312 100.707 27.624C100.939 27.944 101.071 28.376 101.103 28.92C101.135 28.92 101.163 28.92 101.187 28.92C101.219 28.912 101.251 28.908 101.283 28.908C101.403 28.908 101.475 29 101.499 29.184C101.523 29.36 101.511 29.54 101.463 29.724C101.415 29.908 101.355 30 101.283 30H101.055C101.055 30.024 101.047 30.068 101.031 30.132ZM100.455 28.788C100.295 28.452 100.103 28.288 99.8789 28.296C99.7429 28.32 99.6349 28.384 99.5549 28.488C99.5149 28.536 99.5229 28.592 99.5789 28.656C99.7069 28.824 99.9829 28.9 100.407 28.884C100.455 28.884 100.471 28.852 100.455 28.788ZM103.204 17.724L105.364 16.764C105.508 16.708 105.572 16.74 105.556 16.86L105.508 17.268C105.492 17.356 105.456 17.412 105.4 17.436L103.288 18.168C103.112 18.224 103.036 18.18 103.06 18.036L103.084 17.868C103.092 17.804 103.132 17.756 103.204 17.724ZM105.289 18.204C105.313 18.02 105.373 17.936 105.469 17.952C105.589 17.968 105.645 18.052 105.637 18.204C105.613 18.62 105.533 18.976 105.397 19.272C105.237 19.616 105.013 19.8 104.725 19.824C104.541 19.832 104.365 19.736 104.197 19.536C104.141 19.64 104.073 19.728 103.993 19.8C103.913 19.872 103.829 19.932 103.741 19.98C103.541 20.084 103.345 20.096 103.153 20.016C102.689 19.824 102.637 19.264 102.997 18.336C103.037 18.248 103.085 18.196 103.141 18.18C103.173 18.172 103.209 18.176 103.249 18.192C103.337 18.232 103.365 18.32 103.333 18.456C103.197 18.928 103.253 19.18 103.501 19.212C103.805 19.244 104.045 18.92 104.221 18.24C104.261 18.104 104.325 18.048 104.413 18.072C104.517 18.096 104.557 18.156 104.533 18.252C104.485 18.532 104.513 18.716 104.617 18.804C104.673 18.844 104.741 18.864 104.821 18.864C105.085 18.864 105.241 18.644 105.289 18.204ZM105.276 29.712C104.676 29.912 103.908 30.016 102.972 30.024C102.5 30.032 102.12 30.032 101.832 30.024C101.552 30.016 101.364 30.008 101.268 30C101.204 29.984 101.144 29.892 101.088 29.724C100.92 29.212 100.98 28.944 101.268 28.92L101.784 28.908L102.444 28.2C102.452 27.432 102.424 26.584 102.36 25.656C102.296 24.728 102.196 23.724 102.06 22.644C102.044 22.484 102.028 22.356 102.012 22.26C102.004 22.164 101.992 22.1 101.976 22.068C101.944 21.956 102.04 21.684 102.264 21.252C102.288 21.204 102.32 21.18 102.36 21.18C102.4 21.18 102.432 21.208 102.456 21.264C102.624 21.696 102.792 21.996 102.96 22.164C103.056 22.252 103.056 22.356 102.96 22.476L102.756 22.74C102.716 22.788 102.704 22.876 102.72 23.004C102.928 24.636 103.012 25.788 102.972 26.46C102.964 26.588 102.94 26.772 102.9 27.012C102.86 27.244 102.808 27.528 102.744 27.864C103.728 27.04 104.46 26.516 104.94 26.292C105.444 26.06 105.816 25.984 106.056 26.064C106.432 26.168 106.732 26.452 106.956 26.916C106.996 26.988 107.004 27.104 106.98 27.264C106.868 27.88 106.596 28.38 106.164 28.764C106.468 28.844 106.764 28.9 107.052 28.932C107.34 28.956 107.62 28.952 107.892 28.92C108.004 28.904 108.076 28.976 108.108 29.136C108.18 29.448 108.176 29.668 108.096 29.796C108.008 29.932 107.94 30 107.892 30C107.108 30.064 106.236 29.968 105.276 29.712ZM105.672 27.516C105.168 27.14 104.468 27.26 103.572 27.876C103.348 28.028 103.132 28.192 102.924 28.368C102.724 28.544 102.532 28.724 102.348 28.908C103.78 28.828 105.036 28.516 106.116 27.972C106.036 27.828 105.888 27.676 105.672 27.516ZM109.863 17.748C110.063 17.628 110.135 17.668 110.079 17.868L109.959 18.252C109.935 18.356 109.847 18.452 109.695 18.54L107.367 19.884C107.295 19.924 107.239 19.936 107.199 19.92C107.167 19.896 107.151 19.848 107.151 19.776V19.572C107.151 19.508 107.223 19.416 107.367 19.296L109.863 17.748ZM110.805 28.92C110.949 28.96 111.025 29.004 111.033 29.052C111.049 29.116 111.049 29.212 111.033 29.34C110.977 29.78 110.901 30 110.805 30C110.373 30 109.941 29.756 109.509 29.268C109.141 29.708 108.597 29.952 107.877 30C107.797 30 107.745 29.94 107.721 29.82L107.625 29.316C107.601 29.244 107.617 29.16 107.673 29.064C107.721 28.984 107.789 28.936 107.877 28.92C108.757 28.848 109.349 28.584 109.653 28.128C109.693 28.064 109.749 28.032 109.821 28.032C109.893 28.032 109.929 28.068 109.929 28.14C109.929 28.204 109.937 28.252 109.953 28.284C110.217 28.644 110.501 28.856 110.805 28.92ZM109.893 30.768C109.909 30.744 109.941 30.736 109.989 30.744C110.149 30.8 110.297 30.868 110.433 30.948C110.577 31.028 110.713 31.124 110.841 31.236C110.873 31.268 110.877 31.304 110.853 31.344L110.277 32.256C110.261 32.28 110.225 32.272 110.169 32.232C110.145 32.208 110.077 32.16 109.965 32.088C109.853 32.024 109.693 31.932 109.485 31.812L109.029 32.52C109.005 32.56 108.965 32.556 108.909 32.508C108.877 32.484 108.793 32.428 108.657 32.34C108.521 32.252 108.325 32.132 108.069 31.98C108.037 31.956 108.033 31.932 108.057 31.908L108.645 31.032C108.661 31.008 108.693 31 108.741 31.008C108.877 31.048 109.005 31.1 109.125 31.164C109.245 31.236 109.357 31.316 109.461 31.404L109.893 30.768ZM110.5 18.192C110.82 17.608 111.232 17.508 111.736 17.892C112.064 18.148 112.24 18.448 112.264 18.792C112.288 19.224 112.156 19.544 111.868 19.752C111.652 19.896 111.392 19.956 111.088 19.932C110.448 19.884 110.188 19.484 110.308 18.732C110.324 18.628 110.348 18.532 110.38 18.444C110.42 18.356 110.46 18.272 110.5 18.192ZM111.772 19.092C112.004 19.028 112 18.876 111.76 18.636C111.584 18.46 111.372 18.372 111.124 18.372C110.828 18.364 110.672 18.492 110.656 18.756C110.656 18.932 110.72 19.044 110.848 19.092C111.128 19.188 111.436 19.188 111.772 19.092ZM110.999 22.08C111.119 21.792 111.191 21.612 111.215 21.54C111.239 21.468 111.279 21.432 111.335 21.432C111.399 21.432 111.443 21.472 111.467 21.552C111.587 21.912 111.759 22.204 111.983 22.428C112.063 22.5 112.059 22.592 111.971 22.704L111.707 23.076C111.731 23.3 111.755 23.516 111.779 23.724C111.803 23.932 111.827 24.132 111.851 24.324C112.115 26.316 112.207 27.524 112.127 27.948C111.871 29.22 111.431 29.904 110.807 30C110.791 30 110.775 30 110.759 30C110.647 29.968 110.603 29.704 110.627 29.208C110.627 29.024 110.687 28.928 110.807 28.92C111.247 28.872 111.551 28.692 111.719 28.38C111.711 28.068 111.679 27.664 111.623 27.168C111.575 26.672 111.507 26.092 111.419 25.428C111.339 24.764 111.271 24.228 111.215 23.82C111.159 23.412 111.123 23.132 111.107 22.98L110.987 22.296C110.979 22.2 110.983 22.128 110.999 22.08ZM116.426 17.748C116.626 17.628 116.698 17.668 116.642 17.868L116.522 18.252C116.498 18.356 116.41 18.452 116.258 18.54L113.93 19.884C113.858 19.924 113.802 19.936 113.762 19.92C113.73 19.896 113.714 19.848 113.714 19.776V19.572C113.714 19.508 113.786 19.416 113.93 19.296L116.426 17.748ZM114.932 27.672C115.212 26.896 115.54 26.512 115.916 26.52C116.148 26.52 116.364 26.68 116.564 27C116.668 27.16 116.748 27.328 116.804 27.504C116.86 27.68 116.904 27.868 116.936 28.068C117 28.468 116.94 29.024 116.756 29.736C116.572 30.448 116.22 31.1 115.7 31.692C115.172 32.292 114.752 32.608 114.44 32.64C114.12 32.672 113.696 32.648 113.168 32.568C112.904 32.528 112.68 32.48 112.496 32.424C112.304 32.376 112.148 32.328 112.028 32.28C111.94 32.24 111.9 32.192 111.908 32.136C111.924 32.072 111.976 32.048 112.064 32.064C112.688 32.152 113.284 32.128 113.852 31.992C114.02 31.952 114.224 31.852 114.464 31.692C114.712 31.532 114.996 31.312 115.316 31.032C115.636 30.752 115.892 30.496 116.084 30.264C116.276 30.032 116.4 29.82 116.456 29.628C116.416 29.292 116.368 29.108 116.312 29.076C116.008 29.548 115.62 29.664 115.148 29.424C114.676 29.184 114.604 28.6 114.932 27.672ZM116.024 28.116C115.792 27.74 115.544 27.724 115.28 28.068C115.48 28.292 115.728 28.308 116.024 28.116Z" fill="#F5F1E8"/>
</g>
<defs>
<clipPath id="clip0_381_4457">
<rect width="150" height="117" fill="white"/>
</clipPath>
</defs>
</svg>
