<svg width="314" height="450" viewBox="0 0 314 450" fill="none" xmlns="http://www.w3.org/2000/svg">
<g clip-path="url(#clip0_364_4341)">
<rect width="314" height="450" rx="30" fill="#EEE6D4"/>
<path d="M43.7 4C43.7 4 43.5 6.6 41 6.9C43.5 7.2 43.7 9.8 43.7 9.8C43.7 9.8 43.9 7.2 46.4 6.9C43.9 6.7 43.7 4 43.7 4Z" fill="#9BAFA8"/>
<path d="M177.7 45C177.7 45 177.5 47.6 175 47.9C177.5 48.2 177.7 50.8 177.7 50.8C177.7 50.8 177.9 48.2 180.4 47.9C177.9 47.7 177.7 45 177.7 45Z" fill="#9BAFA8"/>
<path d="M79.7 35C79.7 35 79.5 37.6 77 37.9C79.5 38.2 79.7 40.8 79.7 40.8C79.7 40.8 79.9 38.2 82.4 37.9C79.9 37.7 79.7 35 79.7 35Z" fill="#9BAFA8"/>
<path d="M299.7 104C299.7 104 299.5 106.6 297 106.9C299.5 107.2 299.7 109.8 299.7 109.8C299.7 109.8 299.9 107.2 302.4 106.9C299.8 106.7 299.7 104 299.7 104Z" fill="#9BAFA8"/>
<path d="M183.3 163.6C183.3 163.6 183.1 166.2 180.6 166.5C183.1 166.8 183.3 169.4 183.3 169.4C183.3 169.4 183.5 166.8 186 166.5C183.4 166.3 183.3 163.6 183.3 163.6Z" fill="#9BAFA8"/>
<path d="M139.1 74C139.1 74 138.6 81 132 81.6C138.6 82.3 139.1 89.2 139.1 89.2C139.1 89.2 139.6 82.2 146.2 81.6C139.6 81 139.1 74 139.1 74Z" fill="#9BAFA8"/>
<path d="M15.1 62.6992C15.1 62.6992 14.6 69.6992 8 70.2992C14.6 70.9992 15.1 77.8992 15.1 77.8992C15.1 77.8992 15.6 70.8992 22.2 70.2992C15.6 69.6992 15.1 62.6992 15.1 62.6992Z" fill="#9BAFA8"/>
<path d="M132.2 4C132.2 4 131.8 9.1 127 9.6C131.8 10.1 132.2 15.2 132.2 15.2C132.2 15.2 132.6 10.1 137.4 9.6C132.6 9 132.2 4 132.2 4Z" fill="#9BAFA8"/>
<path d="M58.6 99C58.6 99 58.3 103.5 54 104C58.3 104.4 58.6 109 58.6 109C58.6 109 58.9 104.5 63.2 104C59 103.5 58.6 99 58.6 99Z" fill="#9BAFA8"/>
<path d="M99.5004 198.9C99.5004 198.9 99.2004 203.4 94.9004 203.9C99.2004 204.3 99.5004 208.9 99.5004 208.9C99.5004 208.9 99.8004 204.4 104.1 203.9C99.8004 203.4 99.5004 198.9 99.5004 198.9Z" fill="#9BAFA8"/>
</g>
<defs>
<clipPath id="clip0_364_4341">
<rect width="314" height="450" fill="white"/>
</clipPath>
</defs>
</svg>
