<svg width="359" height="211" viewBox="0 0 359 211" fill="none" xmlns="http://www.w3.org/2000/svg">
<g style="mix-blend-mode:soft-light" opacity="0.5">
<path d="M0 143.07H106.3C106.3 143.07 98.7 119.77 85.9 123.17C73.1 126.47 73.6 129.37 73.6 129.37C73.6 129.37 69.8 109.47 52.7 112.27C35.6 115.07 31.8 128.87 31.8 128.87C31.8 128.87 20.9 124.57 16.1 128.87C11.4 133.17 12.3 135.47 12.3 135.47C12.3 135.47 1.9 130.77 0 143.07Z" fill="white"/>
</g>
<g style="mix-blend-mode:soft-light" opacity="0.8">
<path d="M281 100.216C279.8 96.8161 277.1 90.9161 272.9 89.5161C266.9 87.5161 258 94.1161 258 94.1161C258 94.1161 253.7 78.6161 239.3 78.0161C224.9 77.4161 227.5 93.8161 227.5 93.8161C227.5 93.8161 223.8 92.7161 216.3 90.4161C208.8 88.1161 206.2 95.0161 206.2 95.0161C201.5 93.3161 199.6 97.8161 199 100.216H281Z" fill="white"/>
</g>
<path d="M57.7 0C57.7 0 57.5 2.6 55 2.9C57.5 3.2 57.7 5.8 57.7 5.8C57.7 5.8 57.9 3.2 60.4 2.9C57.9 2.7 57.7 0 57.7 0Z" fill="#305A53"/>
<path d="M191.7 41C191.7 41 191.5 43.6 189 43.9C191.5 44.2 191.7 46.8 191.7 46.8C191.7 46.8 191.9 44.2 194.4 43.9C191.9 43.7 191.7 41 191.7 41Z" fill="#305A53"/>
<path d="M93.7 31C93.7 31 93.5 33.6 91 33.9C93.5 34.2 93.7 36.8 93.7 36.8C93.7 36.8 93.9 34.2 96.4 33.9C93.9 33.7 93.7 31 93.7 31Z" fill="#305A53"/>
<path d="M313.7 100C313.7 100 313.5 102.6 311 102.9C313.5 103.2 313.7 105.8 313.7 105.8C313.7 105.8 313.9 103.2 316.4 102.9C313.8 102.7 313.7 100 313.7 100Z" fill="#305A53"/>
<path d="M197.3 159.6C197.3 159.6 197.1 162.2 194.6 162.5C197.1 162.8 197.3 165.4 197.3 165.4C197.3 165.4 197.5 162.8 200 162.5C197.4 162.3 197.3 159.6 197.3 159.6Z" fill="#305A53"/>
<path d="M153.1 70C153.1 70 152.6 77 146 77.6C152.6 78.3 153.1 85.2 153.1 85.2C153.1 85.2 153.6 78.2 160.2 77.6C153.6 77 153.1 70 153.1 70Z" fill="#305A53"/>
<path d="M29.1 58.6992C29.1 58.6992 28.6 65.6992 22 66.2992C28.6 66.9992 29.1 73.8992 29.1 73.8992C29.1 73.8992 29.6 66.8992 36.2 66.2992C29.6 65.6992 29.1 58.6992 29.1 58.6992Z" fill="#305A53"/>
<path d="M146.2 0C146.2 0 145.8 5.1 141 5.6C145.8 6.1 146.2 11.2 146.2 11.2C146.2 11.2 146.6 6.1 151.4 5.6C146.6 5 146.2 0 146.2 0Z" fill="#305A53"/>
<path d="M72.6 95C72.6 95 72.3 99.5 68 100C72.3 100.4 72.6 105 72.6 105C72.6 105 72.9 100.5 77.2 100C73 99.5 72.6 95 72.6 95Z" fill="#305A53"/>
<path d="M113.5 194.9C113.5 194.9 113.2 199.4 108.9 199.9C113.2 200.3 113.5 204.9 113.5 204.9C113.5 204.9 113.8 200.4 118.1 199.9C113.8 199.4 113.5 194.9 113.5 194.9Z" fill="#305A53"/>
<g style="mix-blend-mode:soft-light" opacity="0.5">
<path d="M251.8 168.5H358.1C358.1 168.5 350.5 145.2 337.7 148.6C324.9 151.9 325.4 154.8 325.4 154.8C325.4 154.8 321.6 134.9 304.5 137.7C287.4 140.5 283.6 154.3 283.6 154.3C283.6 154.3 272.7 150 267.9 154.3C263.2 158.6 264.1 160.9 264.1 160.9C264.1 160.9 253.7 156.2 251.8 168.5Z" fill="white"/>
</g>
<path d="M169 27.666C151.319 27.666 134.362 34.6898 121.86 47.1922C109.357 59.6947 102.333 76.6516 102.333 94.3327C102.333 139.333 161.083 190.166 163.583 192.333C165.093 193.624 167.014 194.333 169 194.333C170.986 194.333 172.907 193.624 174.417 192.333C177.333 190.166 235.667 139.333 235.667 94.3327C235.667 76.6516 228.643 59.6947 216.14 47.1922C203.638 34.6898 186.681 27.666 169 27.666ZM169 174.749C151.25 158.083 119 122.166 119 94.3327C119 81.0719 124.268 68.3542 133.645 58.9773C143.022 49.6005 155.739 44.3327 169 44.3327C182.261 44.3327 194.979 49.6005 204.355 58.9773C213.732 68.3542 219 81.0719 219 94.3327C219 122.166 186.75 158.166 169 174.749ZM169 60.9993C162.407 60.9993 155.963 62.9543 150.481 66.617C144.999 70.2797 140.727 75.4857 138.204 81.5766C135.681 87.6674 135.021 94.3697 136.307 100.836C137.593 107.302 140.768 113.241 145.43 117.903C150.092 122.565 156.031 125.739 162.497 127.026C168.963 128.312 175.665 127.652 181.756 125.129C187.847 122.606 193.053 118.333 196.716 112.852C200.378 107.37 202.333 100.925 202.333 94.3327C202.333 85.4921 198.821 77.0137 192.57 70.7625C186.319 64.5112 177.841 60.9993 169 60.9993ZM169 110.999C165.704 110.999 162.481 110.022 159.741 108.191C157 106.359 154.864 103.756 153.602 100.711C152.341 97.6653 152.011 94.3142 152.654 91.0812C153.297 87.8482 154.884 84.8784 157.215 82.5476C159.546 80.2167 162.516 78.6293 165.749 77.9863C168.982 77.3432 172.333 77.6732 175.378 78.9347C178.424 80.1961 181.027 82.3324 182.858 85.0732C184.689 87.814 185.667 91.0363 185.667 94.3327C185.667 98.753 183.911 102.992 180.785 106.118C177.66 109.243 173.42 110.999 169 110.999Z" fill="#305952"/>
</svg>
