<svg width="314" height="450" viewBox="0 0 314 450" fill="none" xmlns="http://www.w3.org/2000/svg">
<g clip-path="url(#clip0_370_4482)">
<rect width="314" height="450" rx="30" fill="#305A53"/>
<path d="M80.3515 109.608C80.7515 109.368 80.8955 109.448 80.7835 109.848L80.5435 110.616C80.4955 110.824 80.3195 111.016 80.0155 111.192L75.3595 113.88C75.2155 113.96 75.1035 113.984 75.0235 113.952C74.9595 113.904 74.9275 113.808 74.9275 113.664V113.256C74.9275 113.128 75.0715 112.944 75.3595 112.704L80.3515 109.608ZM82.77 96.816C83.778 96.928 84.45 97.936 84.786 99.84H85.674C85.914 99.84 86.066 100.016 86.13 100.368C86.162 100.544 86.178 100.728 86.178 100.92C86.194 101.112 86.178 101.296 86.13 101.472C86.034 101.824 85.882 102 85.674 102H84.738C84.722 102.064 84.69 102.2 84.642 102.408C84.594 102.632 84.514 102.936 84.402 103.32C84.178 104.104 83.906 104.704 83.586 105.12C82.322 106.816 80.458 107.816 77.994 108.12C76.618 108.28 75.426 108.08 74.418 107.52C73.602 107.04 73.066 106.368 72.81 105.504C72.362 103.968 72.674 102.264 73.746 100.392L74.442 99.216C74.506 99.104 74.586 99.048 74.682 99.048C74.778 99.048 74.842 99.104 74.874 99.216C74.906 99.312 74.898 99.4 74.85 99.48C74.546 99.976 74.354 100.288 74.274 100.416C73.346 102.016 73.29 103.4 74.106 104.568C74.634 105.336 75.578 105.8 76.938 105.96C78.298 106.12 79.666 105.936 81.042 105.408C82.418 104.88 83.37 104.08 83.898 103.008C83.978 102.784 83.946 102.448 83.802 102C82.474 102 81.53 101.76 80.97 101.28C80.426 100.8 80.57 99.856 81.402 98.448C82.074 97.344 82.53 96.8 82.77 96.816ZM83.034 99.528C82.858 99.128 82.602 98.928 82.266 98.928C81.93 98.928 81.81 99.032 81.906 99.24C82.082 99.608 82.426 99.768 82.938 99.72C83.05 99.704 83.082 99.64 83.034 99.528ZM83.154 91.392C83.186 91.344 83.25 91.328 83.346 91.344C83.666 91.456 83.962 91.592 84.234 91.752C84.522 91.912 84.794 92.104 85.05 92.328C85.114 92.392 85.122 92.464 85.074 92.544L83.922 94.368C83.89 94.416 83.818 94.4 83.706 94.32C83.658 94.272 83.522 94.184 83.298 94.056C83.074 93.912 82.754 93.72 82.338 93.48L81.426 94.896C81.378 94.976 81.298 94.968 81.186 94.872C81.122 94.824 80.954 94.712 80.682 94.536C80.41 94.36 80.018 94.12 79.506 93.816C79.442 93.768 79.434 93.72 79.482 93.672L80.658 91.92C80.69 91.872 80.754 91.856 80.85 91.872C81.122 91.952 81.378 92.064 81.618 92.208C81.858 92.336 82.082 92.488 82.29 92.664L83.154 91.392ZM91.5162 99.84C91.8042 99.92 91.9562 100.008 91.9722 100.104C92.0042 100.232 92.0042 100.424 91.9722 100.68C91.8602 101.56 91.7082 102 91.5162 102C90.6522 102 89.7882 101.512 88.9242 100.536C88.1882 101.416 87.1002 101.904 85.6602 102C85.5002 102 85.3962 101.88 85.3482 101.64L85.1562 100.632C85.1082 100.488 85.1402 100.32 85.2522 100.128C85.3482 99.968 85.4842 99.872 85.6602 99.84C87.4202 99.696 88.6042 99.168 89.2122 98.256C89.2922 98.128 89.4042 98.064 89.5482 98.064C89.6922 98.064 89.7642 98.136 89.7642 98.28C89.7642 98.408 89.7802 98.504 89.8122 98.568C90.3402 99.288 90.9082 99.712 91.5162 99.84ZM89.6922 103.536C89.7242 103.488 89.7882 103.472 89.8842 103.488C90.2042 103.6 90.5002 103.736 90.7722 103.896C91.0602 104.056 91.3322 104.248 91.5882 104.472C91.6522 104.536 91.6602 104.608 91.6122 104.688L90.4602 106.512C90.4282 106.56 90.3562 106.544 90.2442 106.464C90.1962 106.416 90.0602 106.32 89.8362 106.176C89.6122 106.048 89.2922 105.864 88.8762 105.624L87.9642 107.04C87.9162 107.12 87.8362 107.112 87.7242 107.016C87.6602 106.968 87.4922 106.856 87.2202 106.68C86.9482 106.504 86.5562 106.264 86.0442 105.96C85.9802 105.912 85.9722 105.864 86.0202 105.816L87.1962 104.064C87.2282 104.016 87.2922 104 87.3882 104.016C87.6602 104.096 87.9162 104.2 88.1562 104.328C88.3962 104.472 88.6202 104.632 88.8282 104.808L89.6922 103.536ZM96.5702 109.608C96.9702 109.368 97.1142 109.448 97.0022 109.848L96.7622 110.616C96.7142 110.824 96.5382 111.016 96.2342 111.192L91.5782 113.88C91.4342 113.96 91.3222 113.984 91.2422 113.952C91.1782 113.904 91.1462 113.808 91.1462 113.664V113.256C91.1462 113.128 91.2902 112.944 91.5782 112.704L96.5702 109.608ZM97.3755 99.84C97.6635 99.92 97.8155 100.008 97.8315 100.104C97.8635 100.232 97.8635 100.424 97.8315 100.68C97.7195 101.56 97.5675 102 97.3755 102C96.5115 102 95.6475 101.512 94.7835 100.536C94.0475 101.416 92.9595 101.904 91.5195 102C91.3595 102 91.2555 101.88 91.2075 101.64L91.0155 100.632C90.9675 100.488 90.9995 100.32 91.1115 100.128C91.2075 99.968 91.3435 99.872 91.5195 99.84C93.2795 99.696 94.4635 99.168 95.0715 98.256C95.1515 98.128 95.2635 98.064 95.4075 98.064C95.5515 98.064 95.6235 98.136 95.6235 98.28C95.6235 98.408 95.6395 98.504 95.6715 98.568C96.1995 99.288 96.7675 99.712 97.3755 99.84ZM95.0475 91.392C95.0795 91.344 95.1435 91.328 95.2395 91.344C95.5595 91.456 95.8555 91.592 96.1275 91.752C96.4155 91.912 96.6875 92.104 96.9435 92.328C97.0075 92.392 97.0155 92.464 96.9675 92.544L95.8155 94.368C95.7835 94.416 95.7115 94.4 95.5995 94.32C95.5515 94.272 95.4155 94.184 95.1915 94.056C94.9675 93.912 94.6475 93.72 94.2315 93.48L93.3195 94.896C93.2715 94.976 93.1915 94.968 93.0795 94.872C93.0155 94.824 92.8475 94.712 92.5755 94.536C92.3035 94.36 91.9115 94.12 91.3995 93.816C91.3355 93.768 91.3275 93.72 91.3755 93.672L92.5515 91.92C92.5835 91.872 92.6475 91.856 92.7435 91.872C93.0155 91.952 93.2715 92.064 93.5115 92.208C93.7515 92.336 93.9755 92.488 94.1835 92.664L95.0475 91.392ZM103.484 77.496C103.884 77.256 104.028 77.336 103.916 77.736L103.676 78.504C103.628 78.712 103.452 78.904 103.148 79.08L98.4923 81.768C98.3483 81.848 98.2363 81.872 98.1563 81.84C98.0923 81.792 98.0603 81.696 98.0603 81.552V81.144C98.0603 81.016 98.2043 80.832 98.4923 80.592L103.484 77.496ZM106.163 99.84C106.707 99.84 106.947 100.12 106.883 100.68C106.755 101.544 106.515 101.984 106.163 102C104.691 102.096 103.211 101.272 101.723 99.528C99.7069 101.192 98.2589 102.016 97.3789 102C97.0109 102 96.7629 101.696 96.6349 101.088C96.4909 100.288 96.7389 99.872 97.3789 99.84C97.8749 99.808 98.3549 99.712 98.8189 99.552C99.2989 99.392 99.7629 99.16 100.211 98.856C99.7149 98.36 98.9869 98.04 98.0269 97.896C97.9309 97.88 97.8909 97.792 97.9069 97.632C97.9709 97.168 98.3869 96.6 99.1549 95.928C100.531 94.808 102.075 94.768 103.787 95.808C104.603 96.304 104.987 96.784 104.939 97.248C104.891 97.728 104.331 98.304 103.259 98.976C103.835 99.552 104.803 99.84 106.163 99.84ZM105.554 78.384C106.194 77.216 107.018 77.016 108.026 77.784C108.682 78.296 109.034 78.896 109.082 79.584C109.13 80.448 108.866 81.088 108.29 81.504C107.858 81.792 107.338 81.912 106.73 81.864C105.45 81.768 104.93 80.968 105.17 79.464C105.202 79.256 105.25 79.064 105.314 78.888C105.394 78.712 105.474 78.544 105.554 78.384ZM108.098 80.184C108.562 80.056 108.554 79.752 108.074 79.272C107.722 78.92 107.298 78.744 106.802 78.744C106.21 78.728 105.898 78.984 105.866 79.512C105.866 79.864 105.994 80.088 106.25 80.184C106.81 80.376 107.426 80.376 108.098 80.184ZM106.552 86.16C106.792 85.584 106.936 85.224 106.984 85.08C107.032 84.936 107.112 84.864 107.224 84.864C107.352 84.864 107.44 84.944 107.488 85.104C107.728 85.824 108.072 86.408 108.52 86.856C108.68 87 108.672 87.184 108.496 87.408L107.968 88.152C108.016 88.6 108.064 89.032 108.112 89.448C108.16 89.864 108.208 90.264 108.256 90.648C108.784 94.632 108.968 97.048 108.808 97.896C108.296 100.44 107.416 101.808 106.168 102C106.136 102 106.104 102 106.072 102C105.848 101.936 105.76 101.408 105.808 100.416C105.808 100.048 105.928 99.856 106.168 99.84C107.048 99.744 107.656 99.384 107.992 98.76C107.976 98.136 107.912 97.328 107.8 96.336C107.704 95.344 107.568 94.184 107.392 92.856C107.232 91.528 107.096 90.456 106.984 89.64C106.872 88.824 106.8 88.264 106.768 87.96L106.528 86.592C106.512 86.4 106.52 86.256 106.552 86.16ZM112.499 85.92C112.835 85.136 113.051 85.12 113.147 85.872L113.699 91.752C114.307 97.048 114.235 100.408 113.483 101.832C113.371 102.024 113.283 102.072 113.219 101.976C113.155 101.896 113.123 101.76 113.123 101.568C113.155 100.224 113.059 98.712 112.835 97.032C112.835 96.968 112.667 95.448 112.331 92.472L111.803 88.128C111.771 87.808 111.803 87.536 111.899 87.312L112.499 85.92ZM112.115 81C112.387 80.6 112.627 80.264 112.835 79.992C113.059 79.72 113.251 79.512 113.411 79.368C113.859 78.968 114.291 78.768 114.707 78.768C115.331 78.768 115.699 79.032 115.811 79.56C115.907 80.024 115.787 80.52 115.451 81.048C114.539 82.28 113.499 82.856 112.331 82.776C112.075 82.744 111.811 82.688 111.539 82.608C111.283 82.512 111.027 82.384 110.771 82.224C110.579 82.112 110.403 82.136 110.243 82.296L110.027 82.464C109.883 82.576 109.787 82.624 109.739 82.608C109.643 82.528 109.627 82.416 109.691 82.272C110.363 80.976 110.971 80.472 111.515 80.76C111.595 80.808 111.683 80.856 111.779 80.904C111.891 80.936 112.003 80.968 112.115 81ZM113.027 80.52C112.867 80.712 112.723 80.904 112.595 81.096C113.283 81.208 113.987 81.088 114.707 80.736C114.771 80.416 114.739 80.184 114.611 80.04C114.531 79.944 114.395 79.888 114.203 79.872C113.835 79.872 113.443 80.088 113.027 80.52ZM137 109.608C137.4 109.368 137.544 109.448 137.432 109.848L137.192 110.616C137.144 110.824 136.968 111.016 136.664 111.192L132.008 113.88C131.864 113.96 131.752 113.984 131.672 113.952C131.608 113.904 131.576 113.808 131.576 113.664V113.256C131.576 113.128 131.72 112.944 132.008 112.704L137 109.608ZM125.454 95.904C125.566 95.744 125.686 95.728 125.814 95.856C125.942 95.968 125.942 96.112 125.814 96.288C125.238 97.072 125.014 97.744 125.142 98.304C125.67 100.528 128.094 101.584 132.414 101.472C135.326 101.376 138.006 100.824 140.454 99.816C140.934 99.624 141.262 99.152 141.438 98.4C141.486 98.176 141.63 98.072 141.87 98.088C142.046 98.12 142.134 98.288 142.134 98.592C142.15 99.344 142.702 99.76 143.79 99.84C144.19 99.856 144.366 100.112 144.318 100.608C144.222 101.536 144.046 102 143.79 102C143.07 102 142.422 101.632 141.846 100.896C141.814 100.848 141.71 100.888 141.534 101.016C138.686 102.936 135.294 103.896 131.358 103.896C127.454 103.896 125.118 102.936 124.35 101.016C123.998 100.088 123.998 99.12 124.35 98.112C124.702 97.12 125.07 96.384 125.454 95.904ZM134.454 89.88C134.486 89.832 134.55 89.816 134.646 89.832C134.966 89.944 135.262 90.08 135.534 90.24C135.822 90.4 136.094 90.592 136.35 90.816C136.414 90.88 136.422 90.952 136.374 91.032L135.222 92.856C135.19 92.904 135.118 92.888 135.006 92.808C134.958 92.76 134.822 92.672 134.598 92.544C134.374 92.4 134.054 92.208 133.638 91.968L132.726 93.384C132.678 93.464 132.598 93.456 132.486 93.36C132.422 93.312 132.254 93.2 131.982 93.024C131.71 92.848 131.318 92.608 130.806 92.304C130.742 92.256 130.734 92.208 130.782 92.16L131.958 90.408C131.99 90.36 132.054 90.344 132.15 90.36C132.422 90.44 132.678 90.552 132.918 90.696C133.158 90.824 133.382 90.976 133.59 91.152L134.454 89.88ZM144.484 78.384C145.124 77.216 145.948 77.016 146.956 77.784C147.612 78.296 147.964 78.896 148.012 79.584C148.06 80.448 147.796 81.088 147.22 81.504C146.788 81.792 146.268 81.912 145.66 81.864C144.38 81.768 143.86 80.968 144.1 79.464C144.132 79.256 144.18 79.064 144.244 78.888C144.324 78.712 144.404 78.544 144.484 78.384ZM147.028 80.184C147.492 80.056 147.484 79.752 147.004 79.272C146.652 78.92 146.228 78.744 145.732 78.744C145.14 78.728 144.828 78.984 144.796 79.512C144.796 79.864 144.924 80.088 145.18 80.184C145.74 80.376 146.356 80.376 147.028 80.184ZM145.874 94.608C145.858 94.496 145.938 94.264 146.114 93.912C146.29 93.576 146.41 93.36 146.474 93.264C146.634 93.104 146.746 93.184 146.81 93.504C146.842 93.664 146.89 93.896 146.954 94.2C147.034 94.488 147.114 94.84 147.194 95.256C147.594 97.096 147.906 98.264 148.13 98.76C148.45 99.416 148.946 99.776 149.618 99.84C149.81 99.856 149.954 99.952 150.05 100.128C150.162 100.32 150.178 100.56 150.098 100.848C149.954 101.616 149.794 102 149.618 102C148.242 101.968 147.29 100.952 146.762 98.952C146.73 98.872 146.706 98.864 146.69 98.928C145.986 100.848 145.01 101.872 143.762 102C143.618 102.016 143.514 101.92 143.45 101.712C143.386 101.488 143.314 101.128 143.234 100.632C143.154 100.12 143.33 99.856 143.762 99.84C145.09 99.792 146.026 99.304 146.57 98.376C146.602 98.328 146.554 98.056 146.426 97.56C146.362 97.32 146.282 96.952 146.186 96.456C146.106 95.96 146.002 95.344 145.874 94.608ZM147.866 104.136C147.898 104.088 147.962 104.072 148.058 104.088C148.378 104.2 148.674 104.336 148.946 104.496C149.234 104.656 149.506 104.848 149.762 105.072C149.826 105.136 149.834 105.208 149.786 105.288L148.634 107.112C148.602 107.16 148.53 107.144 148.418 107.064C148.37 107.016 148.234 106.92 148.01 106.776C147.786 106.648 147.466 106.464 147.05 106.224L146.138 107.64C146.09 107.72 146.01 107.712 145.898 107.616C145.834 107.568 145.666 107.456 145.394 107.28C145.122 107.104 144.73 106.864 144.218 106.56C144.154 106.512 144.146 106.464 144.194 106.416L145.37 104.664C145.402 104.616 145.466 104.6 145.562 104.616C145.834 104.696 146.09 104.8 146.33 104.928C146.57 105.072 146.794 105.232 147.002 105.408L147.866 104.136ZM153.594 77.496C153.994 77.256 154.138 77.336 154.026 77.736L153.786 78.504C153.738 78.712 153.562 78.904 153.258 79.08L148.602 81.768C148.458 81.848 148.346 81.872 148.266 81.84C148.202 81.792 148.17 81.696 148.17 81.552V81.144C148.17 81.016 148.314 80.832 148.602 80.592L153.594 77.496ZM155.477 99.84C155.765 99.92 155.917 100.008 155.933 100.104C155.965 100.232 155.965 100.424 155.933 100.68C155.821 101.56 155.669 102 155.477 102C154.613 102 153.749 101.512 152.885 100.536C152.149 101.416 151.061 101.904 149.621 102C149.461 102 149.357 101.88 149.309 101.64L149.117 100.632C149.069 100.488 149.101 100.32 149.213 100.128C149.309 99.968 149.445 99.872 149.621 99.84C151.381 99.696 152.565 99.168 153.173 98.256C153.253 98.128 153.365 98.064 153.509 98.064C153.653 98.064 153.725 98.136 153.725 98.28C153.725 98.408 153.741 98.504 153.773 98.568C154.301 99.288 154.869 99.712 155.477 99.84ZM152.285 104.688C152.317 104.64 152.381 104.624 152.477 104.64C153.117 104.864 153.685 105.2 154.181 105.648C154.245 105.712 154.253 105.776 154.205 105.84L153.077 107.664C153.029 107.744 152.949 107.736 152.837 107.64C152.773 107.592 152.605 107.48 152.333 107.304C152.061 107.128 151.669 106.888 151.157 106.584C151.077 106.536 151.061 106.488 151.109 106.44L152.285 104.688ZM154.867 78.384C155.507 77.216 156.331 77.016 157.339 77.784C157.995 78.296 158.347 78.896 158.395 79.584C158.443 80.448 158.179 81.088 157.603 81.504C157.171 81.792 156.651 81.912 156.043 81.864C154.763 81.768 154.243 80.968 154.483 79.464C154.515 79.256 154.563 79.064 154.627 78.888C154.707 78.712 154.787 78.544 154.867 78.384ZM157.411 80.184C157.875 80.056 157.867 79.752 157.387 79.272C157.035 78.92 156.611 78.744 156.115 78.744C155.523 78.728 155.211 78.984 155.179 79.512C155.179 79.864 155.307 80.088 155.563 80.184C156.123 80.376 156.739 80.376 157.411 80.184ZM155.864 86.16C156.104 85.584 156.248 85.224 156.296 85.08C156.344 84.936 156.424 84.864 156.536 84.864C156.664 84.864 156.752 84.944 156.8 85.104C157.04 85.824 157.384 86.408 157.832 86.856C157.992 87 157.984 87.184 157.808 87.408L157.28 88.152C157.328 88.6 157.376 89.032 157.424 89.448C157.472 89.864 157.52 90.264 157.568 90.648C158.096 94.632 158.28 97.048 158.12 97.896C157.608 100.44 156.728 101.808 155.48 102C155.448 102 155.416 102 155.384 102C155.16 101.936 155.072 101.408 155.12 100.416C155.12 100.048 155.24 99.856 155.48 99.84C156.36 99.744 156.968 99.384 157.304 98.76C157.288 98.136 157.224 97.328 157.112 96.336C157.016 95.344 156.88 94.184 156.704 92.856C156.544 91.528 156.408 90.456 156.296 89.64C156.184 88.824 156.112 88.264 156.08 87.96L155.84 86.592C155.824 86.4 155.832 86.256 155.864 86.16ZM162.7 84.72C162.764 84.608 162.82 84.56 162.868 84.576C162.948 84.576 163.012 84.744 163.06 85.08C163.348 87.56 163.54 89.68 163.636 91.44C163.716 93.104 163.78 94.44 163.828 95.448C163.892 96.456 163.932 97.136 163.948 97.488C164.06 98.96 164.86 99.744 166.348 99.84C166.78 99.872 166.948 100.16 166.852 100.704C166.708 101.568 166.54 102 166.348 102C164.252 102 163.132 101.024 162.988 99.072C162.924 98.256 162.868 97.44 162.82 96.624C162.788 95.792 162.756 94.96 162.724 94.128C162.676 92.464 162.58 91.12 162.436 90.096C162.292 89.056 162.1 87.88 161.86 86.568C161.812 86.328 161.836 86.128 161.932 85.968L162.7 84.72ZM162.124 81C162.396 80.6 162.636 80.264 162.844 79.992C163.068 79.72 163.26 79.512 163.42 79.368C163.868 78.968 164.3 78.768 164.716 78.768C165.34 78.768 165.708 79.032 165.82 79.56C165.916 80.024 165.796 80.52 165.46 81.048C164.548 82.28 163.508 82.856 162.34 82.776C162.084 82.744 161.82 82.688 161.548 82.608C161.292 82.512 161.036 82.384 160.78 82.224C160.588 82.112 160.412 82.136 160.252 82.296L160.036 82.464C159.892 82.576 159.796 82.624 159.748 82.608C159.652 82.528 159.636 82.416 159.7 82.272C160.372 80.976 160.98 80.472 161.524 80.76C161.604 80.808 161.692 80.856 161.788 80.904C161.9 80.936 162.012 80.968 162.124 81ZM163.036 80.52C162.876 80.712 162.732 80.904 162.604 81.096C163.292 81.208 163.996 81.088 164.716 80.736C164.78 80.416 164.748 80.184 164.62 80.04C164.54 79.944 164.404 79.888 164.212 79.872C163.844 79.872 163.452 80.088 163.036 80.52ZM172.156 109.608C172.556 109.368 172.7 109.448 172.588 109.848L172.348 110.616C172.3 110.824 172.124 111.016 171.82 111.192L167.164 113.88C167.02 113.96 166.908 113.984 166.828 113.952C166.764 113.904 166.732 113.808 166.732 113.664V113.256C166.732 113.128 166.876 112.944 167.164 112.704L172.156 109.608ZM170.075 97.248L170.747 95.76C170.891 95.472 171.043 95.472 171.203 95.76C171.587 96.416 171.755 97.44 171.707 98.832C171.675 99.52 171.475 100.112 171.107 100.608C170.307 101.68 168.723 102.144 166.355 102C166.067 101.968 165.851 101.432 165.707 100.392C165.627 99.928 165.843 99.744 166.355 99.84C166.883 99.936 167.475 99.952 168.131 99.888C168.467 99.856 168.851 99.784 169.283 99.672C169.731 99.56 170.227 99.4 170.771 99.192C170.691 98.92 170.595 98.672 170.483 98.448C170.387 98.208 170.275 98.008 170.147 97.848C170.003 97.672 169.979 97.472 170.075 97.248ZM169.067 104.688C169.099 104.64 169.163 104.624 169.259 104.64C169.899 104.864 170.467 105.2 170.963 105.648C171.027 105.712 171.035 105.776 170.987 105.84L169.859 107.664C169.811 107.744 169.731 107.736 169.619 107.64C169.555 107.592 169.387 107.48 169.115 107.304C168.843 107.128 168.451 106.888 167.939 106.584C167.859 106.536 167.843 106.488 167.891 106.44L169.067 104.688ZM181.071 79.84C181.679 78.768 182.463 78.576 183.423 79.264C184.127 79.776 184.455 80.352 184.407 80.992C184.327 81.792 184.079 82.392 183.663 82.792C183.391 83.064 182.903 83.176 182.199 83.128C180.967 83.08 180.471 82.328 180.711 80.872C180.775 80.504 180.895 80.16 181.071 79.84ZM183.591 81.472C183.863 81.408 183.823 81.184 183.471 80.8C183.103 80.432 182.703 80.232 182.271 80.2C181.647 80.2 181.311 80.44 181.263 80.92C181.231 81.16 181.311 81.312 181.503 81.376C182.079 81.616 182.775 81.648 183.591 81.472ZM182.343 85.92C182.679 85.136 182.895 85.12 182.991 85.872L183.543 91.752C184.151 97.048 184.079 100.408 183.327 101.832C183.215 102.024 183.127 102.072 183.063 101.976C182.999 101.896 182.967 101.76 182.967 101.568C182.999 100.224 182.903 98.712 182.679 97.032C182.679 96.968 182.511 95.448 182.175 92.472L181.647 88.128C181.615 87.808 181.647 87.536 181.743 87.312L182.343 85.92ZM193.21 102.264C192.714 105.112 191.202 107.104 188.674 108.24C188.354 108.384 188.042 108.496 187.738 108.576C187.434 108.672 187.146 108.728 186.874 108.744C186.298 108.776 185.274 108.288 183.802 107.28C183.626 107.152 183.57 107.032 183.634 106.92C183.698 106.808 183.81 106.792 183.97 106.872C185.298 107.56 186.97 107.328 188.986 106.176C190.698 105.2 191.866 103.848 192.49 102.12C192.49 102.056 192.466 102.016 192.418 102C191.234 101.968 190.378 101.808 189.85 101.52C189.29 101.2 189.082 100.576 189.226 99.648C189.242 99.536 189.266 99.424 189.298 99.312C189.33 99.184 189.37 99.048 189.418 98.904C189.754 97.912 190.25 97.232 190.906 96.864C191.562 96.496 192.114 96.624 192.562 97.248C193.026 97.888 193.29 98.752 193.354 99.84C193.418 99.84 193.474 99.84 193.522 99.84C193.586 99.824 193.65 99.816 193.714 99.816C193.954 99.816 194.098 100 194.146 100.368C194.194 100.72 194.17 101.08 194.074 101.448C193.978 101.816 193.858 102 193.714 102H193.258C193.258 102.048 193.242 102.136 193.21 102.264ZM192.058 99.576C191.738 98.904 191.354 98.576 190.906 98.592C190.634 98.64 190.418 98.768 190.258 98.976C190.178 99.072 190.194 99.184 190.306 99.312C190.562 99.648 191.114 99.8 191.962 99.768C192.058 99.768 192.09 99.704 192.058 99.576ZM196.343 74.496C196.583 74.448 196.807 74.576 197.015 74.88C197.415 75.504 197.415 76.336 197.015 77.376C197.143 77.44 197.247 77.504 197.327 77.568C197.423 77.616 197.503 77.656 197.567 77.688C197.775 77.784 197.823 77.944 197.711 78.168L197.447 78.672C197.351 78.832 197.231 78.888 197.087 78.84C197.023 78.808 196.935 78.768 196.823 78.72C196.711 78.672 196.583 78.608 196.439 78.528C195.335 80 194.079 81.08 192.671 81.768C192.367 81.928 192.159 81.912 192.047 81.72C191.919 81.48 192.031 81.264 192.383 81.072C193.807 80.24 194.951 79.272 195.815 78.168C195.335 77.912 194.999 77.688 194.807 77.496C194.423 77.144 194.319 76.752 194.495 76.32C194.943 75.232 195.559 74.624 196.343 74.496ZM196.079 76.032C195.727 75.712 195.439 75.736 195.215 76.104C195.151 76.2 195.191 76.32 195.335 76.464C195.495 76.624 195.831 76.824 196.343 77.064C196.423 76.568 196.335 76.224 196.079 76.032ZM196.444 92.184C196.652 92.184 196.908 92.312 197.212 92.568C198.652 93.816 199.332 95.4 199.252 97.32C199.204 98.328 198.956 99.128 198.508 99.72C197.324 101.24 195.716 102 193.684 102C193.476 102 193.324 101.816 193.228 101.448C193.18 101.272 193.164 101.088 193.18 100.896C193.18 100.704 193.196 100.528 193.228 100.368C193.292 100.048 193.444 99.872 193.684 99.84C195.684 99.696 197.188 99.12 198.196 98.112C198.148 97.616 198.076 97.304 197.98 97.176C197.868 97 197.772 96.928 197.692 96.96C197.628 96.976 197.588 97.008 197.572 97.056C197.3 97.76 196.884 98.176 196.324 98.304C194.564 98.688 193.756 98.008 193.9 96.264C193.964 95.432 194.284 94.536 194.86 93.576C195.404 92.648 195.932 92.184 196.444 92.184ZM195.652 94.776C195.3 94.792 195.084 95.104 195.004 95.712C195.004 95.808 195.012 95.856 195.028 95.856C195.348 95.952 195.676 95.976 196.012 95.928C196.332 95.88 196.548 95.776 196.66 95.616C196.292 95.024 195.956 94.744 195.652 94.776ZM195.172 87.12C195.204 87.072 195.268 87.056 195.364 87.072C196.004 87.296 196.572 87.632 197.068 88.08C197.132 88.144 197.14 88.208 197.092 88.272L195.964 90.096C195.916 90.176 195.836 90.168 195.724 90.072C195.66 90.024 195.492 89.912 195.22 89.736C194.948 89.56 194.556 89.32 194.044 89.016C193.964 88.968 193.948 88.92 193.996 88.872L195.172 87.12ZM202.29 76.448L206.61 74.528C206.898 74.416 207.026 74.48 206.994 74.72L206.898 75.536C206.866 75.712 206.794 75.824 206.682 75.872L202.458 77.336C202.106 77.448 201.954 77.36 202.002 77.072L202.05 76.736C202.066 76.608 202.146 76.512 202.29 76.448ZM206.461 78.408C206.509 78.04 206.629 77.872 206.821 77.904C207.061 77.936 207.173 78.104 207.157 78.408C207.109 79.24 206.949 79.952 206.677 80.544C206.357 81.232 205.909 81.6 205.333 81.648C204.965 81.664 204.613 81.472 204.277 81.072C204.165 81.28 204.029 81.456 203.869 81.6C203.709 81.744 203.541 81.864 203.365 81.96C202.965 82.168 202.573 82.192 202.189 82.032C201.261 81.648 201.157 80.528 201.877 78.672C201.957 78.496 202.053 78.392 202.165 78.36C202.229 78.344 202.301 78.352 202.381 78.384C202.557 78.464 202.613 78.64 202.549 78.912C202.277 79.856 202.389 80.36 202.885 80.424C203.493 80.488 203.973 79.84 204.325 78.48C204.405 78.208 204.533 78.096 204.709 78.144C204.917 78.192 204.997 78.312 204.949 78.504C204.853 79.064 204.909 79.432 205.117 79.608C205.229 79.688 205.365 79.728 205.525 79.728C206.053 79.728 206.365 79.288 206.461 78.408ZM208.562 102.264C208.066 105.112 206.554 107.104 204.026 108.24C203.706 108.384 203.394 108.496 203.09 108.576C202.786 108.672 202.498 108.728 202.226 108.744C201.65 108.776 200.626 108.288 199.154 107.28C198.978 107.152 198.922 107.032 198.986 106.92C199.05 106.808 199.162 106.792 199.322 106.872C200.65 107.56 202.322 107.328 204.338 106.176C206.05 105.2 207.218 103.848 207.842 102.12C207.842 102.056 207.818 102.016 207.77 102C206.586 101.968 205.73 101.808 205.202 101.52C204.642 101.2 204.434 100.576 204.578 99.648C204.594 99.536 204.618 99.424 204.65 99.312C204.682 99.184 204.722 99.048 204.77 98.904C205.106 97.912 205.602 97.232 206.258 96.864C206.914 96.496 207.466 96.624 207.914 97.248C208.378 97.888 208.642 98.752 208.706 99.84C208.77 99.84 208.826 99.84 208.874 99.84C208.938 99.824 209.002 99.816 209.066 99.816C209.306 99.816 209.45 100 209.498 100.368C209.546 100.72 209.522 101.08 209.426 101.448C209.33 101.816 209.21 102 209.066 102H208.61C208.61 102.048 208.594 102.136 208.562 102.264ZM207.41 99.576C207.09 98.904 206.706 98.576 206.258 98.592C205.986 98.64 205.77 98.768 205.61 98.976C205.53 99.072 205.546 99.184 205.658 99.312C205.914 99.648 206.466 99.8 207.314 99.768C207.41 99.768 207.442 99.704 207.41 99.576ZM212.907 76.448L217.227 74.528C217.515 74.416 217.643 74.48 217.611 74.72L217.515 75.536C217.483 75.712 217.411 75.824 217.299 75.872L213.075 77.336C212.723 77.448 212.571 77.36 212.619 77.072L212.667 76.736C212.683 76.608 212.763 76.512 212.907 76.448ZM217.078 78.408C217.126 78.04 217.246 77.872 217.438 77.904C217.678 77.936 217.79 78.104 217.774 78.408C217.726 79.24 217.566 79.952 217.294 80.544C216.974 81.232 216.526 81.6 215.95 81.648C215.582 81.664 215.23 81.472 214.894 81.072C214.782 81.28 214.646 81.456 214.486 81.6C214.326 81.744 214.158 81.864 213.982 81.96C213.582 82.168 213.19 82.192 212.806 82.032C211.878 81.648 211.774 80.528 212.494 78.672C212.574 78.496 212.67 78.392 212.782 78.36C212.846 78.344 212.918 78.352 212.998 78.384C213.174 78.464 213.23 78.64 213.166 78.912C212.894 79.856 213.006 80.36 213.502 80.424C214.11 80.488 214.59 79.84 214.942 78.48C215.022 78.208 215.15 78.096 215.326 78.144C215.534 78.192 215.614 78.312 215.566 78.504C215.47 79.064 215.526 79.432 215.734 79.608C215.846 79.688 215.982 79.728 216.142 79.728C216.67 79.728 216.982 79.288 217.078 78.408ZM217.051 101.424C215.851 101.824 214.315 102.032 212.443 102.048C211.499 102.064 210.739 102.064 210.163 102.048C209.603 102.032 209.227 102.016 209.035 102C208.907 101.968 208.787 101.784 208.675 101.448C208.339 100.424 208.459 99.888 209.035 99.84L210.067 99.816L211.387 98.4C211.403 96.864 211.347 95.168 211.219 93.312C211.091 91.456 210.891 89.448 210.619 87.288C210.587 86.968 210.555 86.712 210.523 86.52C210.507 86.328 210.483 86.2 210.451 86.136C210.387 85.912 210.579 85.368 211.027 84.504C211.075 84.408 211.139 84.36 211.219 84.36C211.299 84.36 211.363 84.416 211.411 84.528C211.747 85.392 212.083 85.992 212.419 86.328C212.611 86.504 212.611 86.712 212.419 86.952L212.011 87.48C211.931 87.576 211.907 87.752 211.939 88.008C212.355 91.272 212.523 93.576 212.443 94.92C212.427 95.176 212.379 95.544 212.299 96.024C212.219 96.488 212.115 97.056 211.987 97.728C213.955 96.08 215.419 95.032 216.379 94.584C217.387 94.12 218.131 93.968 218.611 94.128C219.363 94.336 219.963 94.904 220.411 95.832C220.491 95.976 220.507 96.208 220.459 96.528C220.235 97.76 219.691 98.76 218.827 99.528C219.435 99.688 220.027 99.8 220.603 99.864C221.179 99.912 221.739 99.904 222.283 99.84C222.507 99.808 222.651 99.952 222.715 100.272C222.859 100.896 222.851 101.336 222.691 101.592C222.515 101.864 222.379 102 222.283 102C220.715 102.128 218.971 101.936 217.051 101.424ZM217.843 97.032C216.835 96.28 215.435 96.52 213.643 97.752C213.195 98.056 212.763 98.384 212.347 98.736C211.947 99.088 211.563 99.448 211.195 99.816C214.059 99.656 216.571 99.032 218.731 97.944C218.571 97.656 218.275 97.352 217.843 97.032ZM226.226 77.496C226.626 77.256 226.77 77.336 226.658 77.736L226.418 78.504C226.37 78.712 226.194 78.904 225.89 79.08L221.234 81.768C221.09 81.848 220.978 81.872 220.898 81.84C220.834 81.792 220.802 81.696 220.802 81.552V81.144C220.802 81.016 220.946 80.832 221.234 80.592L226.226 77.496ZM228.11 99.84C228.398 99.92 228.55 100.008 228.566 100.104C228.598 100.232 228.598 100.424 228.566 100.68C228.454 101.56 228.302 102 228.11 102C227.246 102 226.382 101.512 225.518 100.536C224.782 101.416 223.694 101.904 222.254 102C222.094 102 221.99 101.88 221.942 101.64L221.75 100.632C221.702 100.488 221.734 100.32 221.846 100.128C221.942 99.968 222.078 99.872 222.254 99.84C224.014 99.696 225.198 99.168 225.806 98.256C225.886 98.128 225.998 98.064 226.142 98.064C226.286 98.064 226.358 98.136 226.358 98.28C226.358 98.408 226.374 98.504 226.406 98.568C226.934 99.288 227.502 99.712 228.11 99.84ZM226.286 103.536C226.318 103.488 226.382 103.472 226.478 103.488C226.798 103.6 227.094 103.736 227.366 103.896C227.654 104.056 227.926 104.248 228.182 104.472C228.246 104.536 228.254 104.608 228.206 104.688L227.054 106.512C227.022 106.56 226.95 106.544 226.838 106.464C226.79 106.416 226.654 106.32 226.43 106.176C226.206 106.048 225.886 105.864 225.47 105.624L224.558 107.04C224.51 107.12 224.43 107.112 224.318 107.016C224.254 106.968 224.086 106.856 223.814 106.68C223.542 106.504 223.15 106.264 222.638 105.96C222.574 105.912 222.566 105.864 222.614 105.816L223.79 104.064C223.822 104.016 223.886 104 223.982 104.016C224.254 104.096 224.51 104.2 224.75 104.328C224.99 104.472 225.214 104.632 225.422 104.808L226.286 103.536ZM227.499 78.384C228.139 77.216 228.963 77.016 229.971 77.784C230.627 78.296 230.979 78.896 231.027 79.584C231.075 80.448 230.811 81.088 230.235 81.504C229.803 81.792 229.283 81.912 228.675 81.864C227.395 81.768 226.875 80.968 227.115 79.464C227.147 79.256 227.195 79.064 227.259 78.888C227.339 78.712 227.419 78.544 227.499 78.384ZM230.043 80.184C230.507 80.056 230.499 79.752 230.019 79.272C229.667 78.92 229.243 78.744 228.747 78.744C228.155 78.728 227.843 78.984 227.811 79.512C227.811 79.864 227.939 80.088 228.195 80.184C228.755 80.376 229.371 80.376 230.043 80.184ZM228.497 86.16C228.737 85.584 228.881 85.224 228.929 85.08C228.977 84.936 229.057 84.864 229.169 84.864C229.297 84.864 229.385 84.944 229.433 85.104C229.673 85.824 230.017 86.408 230.465 86.856C230.625 87 230.617 87.184 230.441 87.408L229.913 88.152C229.961 88.6 230.009 89.032 230.057 89.448C230.105 89.864 230.153 90.264 230.201 90.648C230.729 94.632 230.913 97.048 230.753 97.896C230.241 100.44 229.361 101.808 228.113 102C228.081 102 228.049 102 228.017 102C227.793 101.936 227.705 101.408 227.753 100.416C227.753 100.048 227.873 99.856 228.113 99.84C228.993 99.744 229.601 99.384 229.937 98.76C229.921 98.136 229.857 97.328 229.745 96.336C229.649 95.344 229.513 94.184 229.337 92.856C229.177 91.528 229.041 90.456 228.929 89.64C228.817 88.824 228.745 88.264 228.713 87.96L228.473 86.592C228.457 86.4 228.465 86.256 228.497 86.16ZM239.351 77.496C239.751 77.256 239.895 77.336 239.783 77.736L239.543 78.504C239.495 78.712 239.319 78.904 239.015 79.08L234.359 81.768C234.215 81.848 234.103 81.872 234.023 81.84C233.959 81.792 233.927 81.696 233.927 81.552V81.144C233.927 81.016 234.071 80.832 234.359 80.592L239.351 77.496ZM236.365 97.344C236.925 95.792 237.581 95.024 238.333 95.04C238.797 95.04 239.229 95.36 239.629 96C239.837 96.32 239.997 96.656 240.109 97.008C240.221 97.36 240.309 97.736 240.373 98.136C240.501 98.936 240.381 100.048 240.013 101.472C239.645 102.896 238.941 104.2 237.901 105.384C236.845 106.584 236.005 107.216 235.381 107.28C234.741 107.344 233.893 107.296 232.837 107.136C232.309 107.056 231.861 106.96 231.493 106.848C231.109 106.752 230.797 106.656 230.557 106.56C230.381 106.48 230.301 106.384 230.317 106.272C230.349 106.144 230.453 106.096 230.629 106.128C231.877 106.304 233.069 106.256 234.205 105.984C234.541 105.904 234.949 105.704 235.429 105.384C235.925 105.064 236.493 104.624 237.133 104.064C237.773 103.504 238.285 102.992 238.669 102.528C239.053 102.064 239.301 101.64 239.413 101.256C239.333 100.584 239.237 100.216 239.125 100.152C238.517 101.096 237.741 101.328 236.797 100.848C235.853 100.368 235.709 99.2 236.365 97.344ZM238.549 98.232C238.085 97.48 237.589 97.448 237.061 98.136C237.461 98.584 237.957 98.616 238.549 98.232Z" fill="#F5F1E8"/>
<path d="M45.7 29C45.7 29 45.5 31.6 43 31.9C45.5 32.2 45.7 34.8 45.7 34.8C45.7 34.8 45.9 32.2 48.4 31.9C45.9 31.7 45.7 29 45.7 29Z" fill="#F5F1E8"/>
<path d="M81.7 60C81.7 60 81.5 62.6 79 62.9C81.5 63.2 81.7 65.8 81.7 65.8C81.7 65.8 81.9 63.2 84.4 62.9C81.9 62.7 81.7 60 81.7 60Z" fill="#F5F1E8"/>
<path d="M301.7 129C301.7 129 301.5 131.6 299 131.9C301.5 132.2 301.7 134.8 301.7 134.8C301.7 134.8 301.9 132.2 304.4 131.9C301.8 131.7 301.7 129 301.7 129Z" fill="#F5F1E8"/>
<path d="M17.1 87.6992C17.1 87.6992 16.6 94.6992 10 95.2992C16.6 95.9992 17.1 102.899 17.1 102.899C17.1 102.899 17.6 95.8992 24.2 95.2992C17.6 94.6992 17.1 87.6992 17.1 87.6992Z" fill="#F5F1E8"/>
<path d="M246.1 29C246.1 29 245.6 36 239 36.6C245.6 37.3 246.1 44.2 246.1 44.2C246.1 44.2 246.6 37.2 253.2 36.6C246.6 36 246.1 29 246.1 29Z" fill="#F5F1E8"/>
<path d="M275.1 87C275.1 87 274.6 94 268 94.6C274.6 95.3 275.1 102.2 275.1 102.2C275.1 102.2 275.6 95.2 282.2 94.6C275.6 94 275.1 87 275.1 87Z" fill="#F5F1E8"/>
<path d="M134.2 29C134.2 29 133.8 34.1 129 34.6C133.8 35.1 134.2 40.2 134.2 40.2C134.2 40.2 134.6 35.1 139.4 34.6C134.6 34 134.2 29 134.2 29Z" fill="#F5F1E8"/>
<path d="M280.2 44C280.2 44 279.8 49.1 275 49.6C279.8 50.1 280.2 55.2 280.2 55.2C280.2 55.2 280.6 50.1 285.4 49.6C280.6 49 280.2 44 280.2 44Z" fill="#F5F1E8"/>
<path d="M60.6 126C60.6 126 60.3 130.5 56 131C60.3 131.4 60.6 136 60.6 136C60.6 136 60.9 131.5 65.2 131C61 130.5 60.6 126 60.6 126Z" fill="#F5F1E8"/>
</g>
<defs>
<clipPath id="clip0_370_4482">
<rect width="314" height="450" fill="white"/>
</clipPath>
</defs>
</svg>
