<svg width="35" height="33" viewBox="0 0 35 33" fill="none" xmlns="http://www.w3.org/2000/svg">
<path d="M17.5058 0L13.8745 4.82344C15.7358 5.66324 17.5058 9.64689 17.5058 9.64689C17.5058 9.64689 19.2758 5.66324 21.1372 4.82344L17.5058 0Z" fill="#6B8C86" fill-opacity="0.65"/>
<path d="M17.5057 10.0352L16.5237 12.5438L17.5057 15.0524L18.4764 12.5438L17.5057 10.0352Z" fill="#6B8C86" fill-opacity="0.65"/>
<path d="M12.8811 5.85742L12.7897 5.88972C12.5499 6.27732 11.8077 7.93537 13.532 11.1008L15.576 11.8544L16.3982 9.93797C15.1307 6.58955 13.3493 5.96509 12.8811 5.85742Z" fill="#6B8C86" fill-opacity="0.65"/>
<path d="M5.12732 4.83398L6.17789 10.6587C8.11916 10.0127 12.3557 11.6493 12.3557 11.6493C12.3557 11.6493 10.62 7.65483 11.3051 5.82451L5.12732 4.83398Z" fill="#6B8C86" fill-opacity="0.65"/>
<path d="M12.6526 11.9297L13.8402 14.3522L16.4209 15.4719L15.2219 13.0494L12.6526 11.9297Z" fill="#6B8C86" fill-opacity="0.65"/>
<path d="M6.25765 12.0595L6.22339 12.1456C6.349 12.5763 7.06841 14.2451 10.6541 15.3433L12.6638 14.5142L11.8074 12.6086C8.39304 11.0797 6.66874 11.8226 6.25765 12.0595Z" fill="#6B8C86" fill-opacity="0.65"/>
<path d="M0 16.4941L5.11582 19.9179C6.00652 18.1629 10.2316 16.4941 10.2316 16.4941C10.2316 16.4941 6.00652 14.8253 5.11582 13.0703L0 16.4941Z" fill="#6B8C86" fill-opacity="0.65"/>
<path d="M10.6426 16.4933L13.3033 17.4192L15.9639 16.4933L13.3033 15.5781L10.6426 16.4933Z" fill="#6B8C86" fill-opacity="0.65"/>
<path d="M6.21204 20.8552L6.24629 20.9413C6.65739 21.1674 8.41595 21.8672 11.7732 20.2415L12.5726 18.3143L10.5399 17.5391C6.99996 18.7342 6.33765 20.4137 6.21204 20.8552Z" fill="#6B8C86" fill-opacity="0.65"/>
<path d="M5.12732 28.1649L11.3051 27.1744C10.62 25.344 12.3557 21.3496 12.3557 21.3496C12.3557 21.3496 8.10774 22.9861 6.16647 22.3401L5.12732 28.1649Z" fill="#6B8C86" fill-opacity="0.65"/>
<path d="M12.6526 21.0715L15.2219 19.9518L16.4209 17.5293L13.8402 18.649L12.6526 21.0715Z" fill="#6B8C86" fill-opacity="0.65"/>
<path d="M12.7896 27.1006L12.881 27.1329C13.3377 27.0145 15.1077 26.3362 16.2725 22.9555L15.3932 21.0605L13.372 21.868C11.7505 25.0873 12.5384 26.713 12.7896 27.1006Z" fill="#6B8C86" fill-opacity="0.65"/>
<path d="M17.5058 33.0004L21.1372 28.177C19.2758 27.3372 17.5058 23.3535 17.5058 23.3535C17.5058 23.3535 15.7358 27.3372 13.8745 28.177L17.5058 33.0004Z" fill="#6B8C86" fill-opacity="0.65"/>
<path d="M17.5057 22.9665L18.4764 20.4578L17.5057 17.9492L16.5237 20.4578L17.5057 22.9665Z" fill="#6B8C86" fill-opacity="0.65"/>
<path d="M22.1192 27.1435L22.2105 27.1112C22.4503 26.7236 23.1926 25.0655 21.4683 21.9001L19.4242 21.1465L18.6021 23.0629C19.8696 26.4114 21.651 27.0358 22.1192 27.1435Z" fill="#6B8C86" fill-opacity="0.65"/>
<path d="M29.8727 28.1649L28.8221 22.3401C26.8808 22.9861 22.6443 21.3496 22.6443 21.3496C22.6443 21.3496 24.38 25.344 23.6949 27.1744L29.8727 28.1649Z" fill="#6B8C86" fill-opacity="0.65"/>
<path d="M22.3475 21.0715L21.1599 18.649L18.5906 17.5293L19.7782 19.9518L22.3475 21.0715Z" fill="#6B8C86" fill-opacity="0.65"/>
<path d="M28.7424 20.942L28.7766 20.8559C28.651 20.4252 27.9316 18.7564 24.346 17.6582L22.3362 18.4872L23.1926 20.3929C26.607 21.9218 28.3313 21.1789 28.7424 20.942Z" fill="#6B8C86" fill-opacity="0.65"/>
<path d="M35 16.4941L29.8841 13.0703C28.9934 14.8253 24.7683 16.4941 24.7683 16.4941C24.7683 16.4941 28.9934 18.1629 29.8841 19.9179L35 16.4941Z" fill="#6B8C86" fill-opacity="0.65"/>
<path d="M24.3573 16.4933L21.6966 15.5781L19.0359 16.4933L21.6966 17.4192L24.3573 16.4933Z" fill="#6B8C86" fill-opacity="0.65"/>
<path d="M28.7878 12.1455L28.7535 12.0594C28.3424 11.8333 26.5839 11.1334 23.2266 12.7592L22.4272 14.6864L24.4599 15.4616C28.0113 14.2665 28.6736 12.5869 28.7878 12.1455Z" fill="#6B8C86" fill-opacity="0.65"/>
<path d="M29.8727 4.83398L23.6949 5.82451C24.38 7.65483 22.6443 11.6493 22.6443 11.6493C22.6443 11.6493 26.8808 10.0127 28.8221 10.6587L29.8727 4.83398Z" fill="#6B8C86" fill-opacity="0.65"/>
<path d="M22.3475 11.9297L19.7782 13.0494L18.5906 15.4719L21.1599 14.3522L22.3475 11.9297Z" fill="#6B8C86" fill-opacity="0.65"/>
<path d="M22.2104 5.89949L22.1191 5.86719C21.6623 5.98562 19.8923 6.66392 18.7275 10.0446L19.6068 11.9396L21.628 11.1321C23.2496 7.91285 22.4616 6.28708 22.2104 5.89949Z" fill="#6B8C86" fill-opacity="0.65"/>
<path d="M17.5056 17.2476C17.9471 17.2476 18.305 16.9101 18.305 16.4939C18.305 16.0777 17.9471 15.7402 17.5056 15.7402C17.0642 15.7402 16.7063 16.0777 16.7063 16.4939C16.7063 16.9101 17.0642 17.2476 17.5056 17.2476Z" fill="#6B8C86" fill-opacity="0.65"/>
</svg>
